<?xml version="1.0" encoding="UTF-8"?>
<svg width="71px" height="53px" viewBox="0 0 71 53" version="1.1" xmlns="http://www.w3.org/2000/svg"
     xmlns:xlink="http://www.w3.org/1999/xlink">
    <title>Artboard Copy</title>
    <g id="Artboard-Copy" stroke="none" stroke-width="1" fill="none" fill-rule="evenodd">
        <path d="M52.5,0.5 C57.4705627,0.5 61.9705627,2.51471863 65.2279221,5.77207794 C68.4852814,9.02943725 70.5,13.5294373 70.5,18.5 C70.5,21.8191864 69.601758,24.9286054 68.0347841,27.598215 C66.4120919,30.3627501 64.0725967,32.6557598 61.271544,34.2219586 C61.0162967,34.3646792 60.7579147,34.5009743 60.496911,34.630826 C60.750715,34.7674672 60.998558,34.91574 61.2395512,35.0752851 C63.8068032,36.7748875 65.5,39.689677 65.5,43 C65.5,45.6233526 64.4366763,47.9983526 62.7175144,49.7175144 C60.9983526,51.4366763 58.6233526,52.5 56,52.5 L56,52.5 L20,52.5 C17.3766474,52.5 15.0016474,51.4366763 13.2824856,49.7175144 C11.5633237,47.9983526 10.5,45.6233526 10.5,43 C10.5,40.4554864 11.5003569,38.1446098 13.1292803,36.4392435 C13.3216611,36.2378346 13.5228806,36.0447969 13.73152,35.8607175 C13.4606091,35.7865242 13.1908401,35.7057739 12.9224444,35.6184297 C9.27012204,34.4298528 6.13081722,32.1044547 3.92163471,29.0602058 C1.76914795,26.0940835 0.5,22.4452368 0.5,18.5 C0.5,13.5294373 2.51471863,9.02943725 5.77207794,5.77207794 C9.02943725,2.51471863 13.5294373,0.5 18.5,0.5 L18.5,0.5 Z"
              id="Combined-Shape" stroke="#000000"></path>
        <text id="any" font-family="SuisseIntl-Regular, Suisse Intl" font-size="25" font-weight="normal"
              line-spacing="25" fill="#1B1B1B">
            <tspan x="15" y="28">any</tspan>
        </text>
        <text id="любой" font-family="ArialMT, Arial" font-size="15" font-weight="normal" line-spacing="15"
              fill="#1B1B1B">
            <tspan x="15" y="49">любой</tspan>
        </text>
    </g>
</svg>
