<?xml version="1.0" encoding="UTF-8"?>
<svg width="108px" height="53px" viewBox="0 0 108 53" version="1.1" xmlns="http://www.w3.org/2000/svg"
     xmlns:xlink="http://www.w3.org/1999/xlink">
    <title>Artboard Copy</title>
    <g id="Artboard-Copy" stroke="none" stroke-width="1" fill="none" fill-rule="evenodd">
        <path d="M70.5,0.5 C75.4705627,0.5 79.9705627,2.51471863 83.2279221,5.77207794 C86.4852814,9.02943725 88.5,13.5294373 88.5,18.5 C88.5,24.7616161 85.3026859,30.2763929 80.4518279,33.5010972 L80.4518279,33.5010972 L98,33.5 C100.623353,33.5 102.998353,34.5633237 104.717514,36.2824856 C106.436676,38.0016474 107.5,40.3766474 107.5,43 C107.5,45.6233526 106.436676,47.9983526 104.717514,49.7175144 C102.998353,51.4366763 100.623353,52.5 98,52.5 L98,52.5 L20,52.5 C17.3766474,52.5 15.0016474,51.4366763 13.2824856,49.7175144 C11.5633237,47.9983526 10.5,45.6233526 10.5,43 C10.5,40.4554864 11.5003569,38.1446098 13.1292803,36.4392435 C13.3216611,36.2378346 13.5228806,36.0447969 13.73152,35.8607175 C13.4606091,35.7865242 13.1908401,35.7057739 12.9224444,35.6184297 C9.27012204,34.4298528 6.13081722,32.1044547 3.92163471,29.0602058 C1.76914795,26.0940835 0.5,22.4452368 0.5,18.5 C0.5,13.5294373 2.51471863,9.02943725 5.77207794,5.77207794 C9.02943725,2.51471863 13.5294373,0.5 18.5,0.5 L18.5,0.5 Z"
              id="Combined-Shape" stroke="#000000"></path>
        <text id="most" font-family="SuisseIntl-Regular, Suisse Intl" font-size="25" font-weight="normal"
              line-spacing="25" fill="#1B1B1B">
            <tspan x="15" y="28">most</tspan>
        </text>
        <text id="наибольшее" font-family="ArialMT, Arial" font-size="15" font-weight="normal" line-spacing="15"
              fill="#1B1B1B">
            <tspan x="15" y="49">наибольшее</tspan>
        </text>
    </g>
</svg>
