<svg width="236" height="412" viewBox="0 0 236 412" fill="none" xmlns="http://www.w3.org/2000/svg">
<rect x="1" y="1" width="234" height="410" rx="9" stroke="#E3E3E3" stroke-width="2"/>
<path d="M23.794 69H22.52V61.062H20.168V60.194C21.61 60.152 22.38 59.942 22.926 58.85H23.794V69ZM35.5046 61.468V69H34.2306V62.574H31.6966L31.5846 64.394C31.4026 67.432 30.7446 69 28.9946 69H28.7566V67.894H28.8966C29.5686 67.894 30.2126 67.166 30.3666 64.044L30.4786 61.468H35.5046ZM42.828 69V63.316L38.936 69H37.662V61.468H38.936V67.152L42.828 61.468H44.102V69H42.828ZM52.2536 67.894H53.3036V70.806H52.0996V69H46.2616V61.468H47.5356V67.894H50.9796V61.468H52.2536V67.894ZM55.3858 65.262C55.3858 67.278 56.4778 68.062 57.6398 68.062C58.8018 68.062 59.8938 67.194 59.8938 65.262C59.8938 63.246 58.8018 62.462 57.6398 62.462C56.4778 62.462 55.3858 63.204 55.3858 65.262ZM57.6398 61.342C59.3898 61.342 61.2518 62.532 61.2518 65.262C61.2518 67.992 59.3898 69.182 57.6398 69.182C55.8898 69.182 54.0278 67.992 54.0278 65.262C54.0278 62.532 55.8898 61.342 57.6398 61.342Z" fill="#5A5A5A"/>
<path d="M28.876 33H27.448V24.082H23.864L23.794 25.846C23.612 30.256 22.926 33 20.84 33H20.42V31.768H20.63C21.974 31.768 22.324 28.884 22.436 25.412L22.506 22.85H28.876V33ZM36.4706 33V27.316L32.5786 33H31.3046V25.468H32.5786V31.152L36.4706 25.468H37.7446V33H36.4706ZM45.8962 31.894H46.9462V34.806H45.7422V33H39.9042V25.468H41.1782V31.894H44.6222V25.468H45.8962V31.894ZM52.9063 29.85V29.374C50.5963 29.598 49.1263 29.948 49.1263 30.984C49.1263 31.698 49.6723 32.174 50.5823 32.174C51.7723 32.174 52.9063 31.628 52.9063 29.85ZM50.3023 33.182C48.8883 33.182 47.7123 32.398 47.7123 31.012C47.7123 29.234 49.7283 28.702 52.8083 28.366V28.184C52.8083 26.798 52.0523 26.35 51.1003 26.35C50.0363 26.35 49.4343 26.91 49.3783 27.848H48.0623C48.1743 26.224 49.6303 25.314 51.0863 25.314C53.1723 25.314 54.0963 26.294 54.0823 28.422L54.0683 30.158C54.0543 31.432 54.1103 32.286 54.2643 33H52.9763C52.9343 32.72 52.8923 32.412 52.8783 31.964C52.4163 32.748 51.6463 33.182 50.3023 33.182Z" fill="#5A5A5A"/>
<path d="M100.672 22.85V24.082H95.772V33H94.344V22.85H100.672ZM105.88 25.468V33H104.606V26.574H102.072L101.96 28.394C101.778 31.432 101.12 33 99.3696 33H99.1316V31.894H99.2716C99.9436 31.894 100.588 31.166 100.742 28.044L100.854 25.468H105.88ZM112.713 29.85V29.374C110.403 29.598 108.933 29.948 108.933 30.984C108.933 31.698 109.479 32.174 110.389 32.174C111.579 32.174 112.713 31.628 112.713 29.85ZM110.109 33.182C108.695 33.182 107.519 32.398 107.519 31.012C107.519 29.234 109.535 28.702 112.615 28.366V28.184C112.615 26.798 111.859 26.35 110.907 26.35C109.843 26.35 109.241 26.91 109.185 27.848H107.869C107.981 26.224 109.437 25.314 110.893 25.314C112.979 25.314 113.903 26.294 113.889 28.422L113.875 30.158C113.861 31.432 113.917 32.286 114.071 33H112.783C112.741 32.72 112.699 32.412 112.685 31.964C112.223 32.748 111.453 33.182 110.109 33.182ZM120.659 26.574H117.131V33H115.857V25.468H120.659V26.574ZM122.425 29.262C122.425 31.278 123.517 32.062 124.679 32.062C125.841 32.062 126.933 31.194 126.933 29.262C126.933 27.246 125.841 26.462 124.679 26.462C123.517 26.462 122.425 27.204 122.425 29.262ZM124.679 25.342C126.429 25.342 128.291 26.532 128.291 29.262C128.291 31.992 126.429 33.182 124.679 33.182C122.929 33.182 121.067 31.992 121.067 29.262C121.067 26.532 122.929 25.342 124.679 25.342ZM135.725 25.468V33H134.451V26.574H131.917L131.805 28.394C131.623 31.432 130.965 33 129.215 33H128.977V31.894H129.117C129.789 31.894 130.433 31.166 130.587 28.044L130.699 25.468H135.725ZM141.499 25.468V23.578H142.773V25.468H144.201V26.49H142.773V30.956C142.773 31.74 142.829 31.936 143.557 31.936H144.201V33H143.277C141.835 33 141.499 32.678 141.499 31.11V26.49H140.309V25.468H141.499ZM146.487 29.262C146.487 31.278 147.579 32.062 148.741 32.062C149.903 32.062 150.995 31.194 150.995 29.262C150.995 27.246 149.903 26.462 148.741 26.462C147.579 26.462 146.487 27.204 146.487 29.262ZM148.741 25.342C150.491 25.342 152.353 26.532 152.353 29.262C152.353 31.992 150.491 33.182 148.741 33.182C146.991 33.182 145.129 31.992 145.129 29.262C145.129 26.532 146.991 25.342 148.741 25.342ZM158.417 29.262C158.417 31.25 159.481 32.09 160.615 32.09C161.917 32.09 162.771 31.068 162.771 29.262C162.771 27.456 161.917 26.434 160.615 26.434C159.481 26.434 158.417 27.274 158.417 29.262ZM157.199 22.85H158.473V26.658C158.935 25.86 159.719 25.342 160.937 25.342C162.673 25.342 164.157 26.798 164.157 29.262C164.157 31.768 162.673 33.182 160.937 33.182C159.719 33.182 158.935 32.664 158.473 31.866V33H157.199V22.85ZM172.367 29.654H166.571C166.613 31.278 167.789 32.062 168.895 32.062C170.015 32.062 170.631 31.558 170.953 30.816H172.269C171.933 32.104 170.729 33.182 168.895 33.182C166.515 33.182 165.199 31.474 165.199 29.248C165.199 26.854 166.795 25.342 168.853 25.342C171.163 25.342 172.521 27.26 172.367 29.654ZM168.853 26.434C167.733 26.434 166.697 27.05 166.585 28.562H171.023C170.981 27.498 170.211 26.434 168.853 26.434Z" fill="#5A5A5A"/>
<path d="M24.228 134.668C26.104 134.668 27.448 135.606 27.448 137.328C27.448 139.68 24.998 141.752 22.156 143.81H27.728V145H20.42V143.852C24.004 141.206 26.104 139.302 26.104 137.496C26.104 136.432 25.418 135.732 24.2 135.732C23.108 135.732 22.058 136.334 22.016 138.014H20.7C20.658 135.998 22.058 134.668 24.228 134.668ZM38.6081 137.468V145H37.3341V138.574H34.8001L34.6881 140.394C34.5061 143.432 33.8481 145 32.0981 145H31.8601V143.894H32.0001C32.6721 143.894 33.3161 143.166 33.4701 140.044L33.5821 137.468H38.6081ZM45.9315 145V139.316L42.0395 145H40.7655V137.468H42.0395V143.152L45.9315 137.468H47.2055V145H45.9315ZM55.3571 143.894H56.4071V146.806H55.2031V145H49.3651V137.468H50.6391V143.894H54.0831V137.468H55.3571V143.894ZM58.4893 141.262C58.4893 143.278 59.5813 144.062 60.7433 144.062C61.9053 144.062 62.9973 143.194 62.9973 141.262C62.9973 139.246 61.9053 138.462 60.7433 138.462C59.5813 138.462 58.4893 139.204 58.4893 141.262ZM60.7433 137.342C62.4933 137.342 64.3553 138.532 64.3553 141.262C64.3553 143.992 62.4933 145.182 60.7433 145.182C58.9933 145.182 57.1313 143.992 57.1313 141.262C57.1313 138.532 58.9933 137.342 60.7433 137.342Z" fill="#5A5A5A"/>
<path d="M23.948 284.118C25.292 284.118 26.244 283.432 26.244 282.158C26.244 280.702 24.942 280.226 23.318 280.226H23.108V279.064H23.276C25.054 279.064 25.978 278.574 25.978 277.384C25.978 276.306 25.082 275.732 24.004 275.732C22.646 275.732 21.904 276.544 21.792 277.706H20.476C20.63 275.914 21.904 274.668 24.032 274.668C25.782 274.668 27.322 275.382 27.322 277.244C27.322 278.294 26.734 279.162 25.67 279.596C27.182 280.086 27.602 281.066 27.602 282.144C27.602 284.188 25.88 285.182 23.934 285.182C21.526 285.182 20.476 283.698 20.322 282.004H21.638C21.792 283.25 22.506 284.118 23.948 284.118ZM38.5671 277.468V285H37.2931V278.574H34.7591L34.6471 280.394C34.4651 283.432 33.8071 285 32.0571 285H31.8191V283.894H31.9591C32.6311 283.894 33.2751 283.166 33.4291 280.044L33.5411 277.468H38.5671ZM45.8905 285V279.316L41.9985 285H40.7245V277.468H41.9985V283.152L45.8905 277.468H47.1645V285H45.8905ZM55.3161 283.894H56.3661V286.806H55.1621V285H49.3241V277.468H50.5981V283.894H54.0421V277.468H55.3161V283.894ZM58.4483 281.262C58.4483 283.278 59.5403 284.062 60.7023 284.062C61.8643 284.062 62.9563 283.194 62.9563 281.262C62.9563 279.246 61.8643 278.462 60.7023 278.462C59.5403 278.462 58.4483 279.204 58.4483 281.262ZM60.7023 277.342C62.4523 277.342 64.3143 278.532 64.3143 281.262C64.3143 283.992 62.4523 285.182 60.7023 285.182C58.9523 285.182 57.0903 283.992 57.0903 281.262C57.0903 278.532 58.9523 277.342 60.7023 277.342Z" fill="#5A5A5A"/>
<path d="M24.512 87.6V105H22.064V87.6H24.512Z" fill="#1E1E1E"/>
<path d="M20 163.6H22.688L27.44 172.096L32.288 163.6H34.976L28.592 174.256V181H26.144V174.208L20 163.6ZM36.0363 174.592C36.0363 178.048 37.9083 179.392 39.9003 179.392C41.8923 179.392 43.7643 177.904 43.7643 174.592C43.7643 171.136 41.8923 169.792 39.9003 169.792C37.9083 169.792 36.0363 171.064 36.0363 174.592ZM39.9003 167.872C42.9003 167.872 46.0923 169.912 46.0923 174.592C46.0923 179.272 42.9003 181.312 39.9003 181.312C36.9003 181.312 33.7083 179.272 33.7083 174.592C33.7083 169.912 36.9003 167.872 39.9003 167.872ZM56.6966 181V179.152C55.9526 180.376 54.7766 181.312 52.6406 181.312C49.6646 181.312 48.5126 179.296 48.5126 176.344V168.088H50.6966V175.696C50.6966 177.688 51.0086 179.416 53.4086 179.416C55.4966 179.416 56.6966 177.976 56.6966 175.192V168.088H58.8806V181H56.6966ZM32.528 195.6L35.96 210.216L39.176 195.6H41.744L37.4 213H34.424L31.064 198.696L27.776 213H24.8L20.384 195.6H23.072L26.432 210.216L29.648 195.6H32.528ZM54.5264 207.264H44.5904C44.6624 210.048 46.6784 211.392 48.5744 211.392C50.4944 211.392 51.5504 210.528 52.1024 209.256H54.3584C53.7824 211.464 51.7184 213.312 48.5744 213.312C44.4944 213.312 42.2384 210.384 42.2384 206.568C42.2384 202.464 44.9744 199.872 48.5024 199.872C52.4624 199.872 54.7904 203.16 54.5264 207.264ZM48.5024 201.744C46.5824 201.744 44.8064 202.8 44.6144 205.392H52.2224C52.1504 203.568 50.8304 201.744 48.5024 201.744ZM25.664 245V229.712H20V227.6H33.776V229.712H28.112V245H25.664ZM37.2245 227.6V234.032C37.9685 232.808 39.2165 231.872 41.4005 231.872C44.5205 231.872 45.6485 233.888 45.6485 236.84V245H43.4645V237.488C43.4645 235.496 43.1285 233.768 40.6325 233.768C38.5205 233.768 37.2245 235.208 37.2245 237.992V245H35.0405V227.6H37.2245ZM60.3155 239.264H50.3795C50.4515 242.048 52.4675 243.392 54.3635 243.392C56.2835 243.392 57.3395 242.528 57.8915 241.256H60.1475C59.5715 243.464 57.5075 245.312 54.3635 245.312C50.2835 245.312 48.0275 242.384 48.0275 238.568C48.0275 234.464 50.7635 231.872 54.2915 231.872C58.2515 231.872 60.5795 235.16 60.3155 239.264ZM54.2915 233.744C52.3715 233.744 50.5955 234.8 50.4035 237.392H58.0115C57.9395 235.568 56.6195 233.744 54.2915 233.744ZM69.9196 232.088H72.1996L67.5916 245.552C66.6316 248.336 66.0076 249.2 63.1036 249.2H61.9756V247.376H62.8636C64.3036 247.376 64.9996 247.28 65.5756 245.264L65.6716 245L61.0156 232.088H63.4396L66.7276 242.048L69.9196 232.088Z" fill="#1E1E1E"/>
<path d="M95.352 200.088V196.848H97.536V200.088H99.984V201.84H97.536V209.496C97.536 210.84 97.632 211.176 98.88 211.176H99.984V213H98.4C95.928 213 95.352 212.448 95.352 209.76V201.84H93.312V200.088H95.352ZM103.904 206.592C103.904 210.048 105.776 211.392 107.768 211.392C109.76 211.392 111.632 209.904 111.632 206.592C111.632 203.136 109.76 201.792 107.768 201.792C105.776 201.792 103.904 203.064 103.904 206.592ZM107.768 199.872C110.768 199.872 113.96 201.912 113.96 206.592C113.96 211.272 110.768 213.312 107.768 213.312C104.768 213.312 101.576 211.272 101.576 206.592C101.576 201.912 104.768 199.872 107.768 199.872ZM124.355 206.592C124.355 210 126.179 211.44 128.123 211.44C130.355 211.44 131.819 209.688 131.819 206.592C131.819 203.496 130.355 201.744 128.123 201.744C126.179 201.744 124.355 203.184 124.355 206.592ZM122.267 195.6H124.451V202.128C125.243 200.76 126.587 199.872 128.675 199.872C131.651 199.872 134.195 202.368 134.195 206.592C134.195 210.888 131.651 213.312 128.675 213.312C126.587 213.312 125.243 212.424 124.451 211.056V213H122.267V195.6ZM148.269 207.264H138.333C138.405 210.048 140.421 211.392 142.317 211.392C144.237 211.392 145.293 210.528 145.845 209.256H148.101C147.525 211.464 145.461 213.312 142.317 213.312C138.237 213.312 135.981 210.384 135.981 206.568C135.981 202.464 138.717 199.872 142.245 199.872C146.205 199.872 148.533 203.16 148.269 207.264ZM142.245 201.744C140.325 201.744 138.549 202.8 138.357 205.392H145.965C145.893 203.568 144.573 201.744 142.245 201.744ZM155.717 205.488H169.781L164.693 200.4L166.037 199.08L173.501 206.544L166.037 214.008L164.693 212.664L169.781 207.6H155.717V205.488ZM189.536 207.6V206.784C185.576 207.168 183.056 207.768 183.056 209.544C183.056 210.768 183.992 211.584 185.552 211.584C187.592 211.584 189.536 210.648 189.536 207.6ZM185.072 213.312C182.648 213.312 180.632 211.968 180.632 209.592C180.632 206.544 184.088 205.632 189.368 205.056V204.744C189.368 202.368 188.072 201.6 186.44 201.6C184.616 201.6 183.584 202.56 183.488 204.168H181.232C181.424 201.384 183.92 199.824 186.416 199.824C189.992 199.824 191.576 201.504 191.552 205.152L191.528 208.128C191.504 210.312 191.6 211.776 191.864 213H189.656C189.584 212.52 189.512 211.992 189.488 211.224C188.696 212.568 187.376 213.312 185.072 213.312ZM201.238 200.04V202.368C200.782 202.296 200.374 202.272 200.014 202.272C197.998 202.272 196.99 203.376 196.99 206.232V213H194.806V200.088H196.942V202.344C197.59 200.88 198.886 200.088 200.59 200.016C200.806 200.016 200.974 200.016 201.238 200.04ZM214.503 207.264H204.567C204.639 210.048 206.655 211.392 208.551 211.392C210.471 211.392 211.527 210.528 212.079 209.256H214.335C213.759 211.464 211.695 213.312 208.551 213.312C204.471 213.312 202.215 210.384 202.215 206.568C202.215 202.464 204.951 199.872 208.479 199.872C212.439 199.872 214.767 203.16 214.503 207.264ZM208.479 201.744C206.559 201.744 204.783 202.8 204.591 205.392H212.199C212.127 203.568 210.807 201.744 208.479 201.744Z" fill="#1E1E1E"/>
<path d="M33.656 303.6H36.104V321H33.656V313.104H24.512V321H22.064V303.6H24.512V310.992H33.656V303.6ZM51.2921 315.264H41.3561C41.4281 318.048 43.4441 319.392 45.3401 319.392C47.2601 319.392 48.3161 318.528 48.8681 317.256H51.1241C50.5481 319.464 48.4841 321.312 45.3401 321.312C41.2601 321.312 39.0041 318.384 39.0041 314.568C39.0041 310.464 41.7401 307.872 45.2681 307.872C49.2281 307.872 51.5561 311.16 51.2921 315.264ZM45.2681 309.744C43.3481 309.744 41.5721 310.8 41.3801 313.392H48.9881C48.9161 311.568 47.5961 309.744 45.2681 309.744ZM21.344 340.04C21.344 336.704 24.824 335.288 27.632 335.288C30.776 335.288 33.536 336.704 34.232 340.04H31.856C31.28 338.048 29.264 337.352 27.536 337.352C26.192 337.352 23.84 337.952 23.84 339.896C23.84 341.432 25.04 342.2 26.672 342.56L28.688 343.016C31.352 343.592 34.544 344.6 34.544 348.104C34.544 351.488 31.376 353.312 27.92 353.312C23.816 353.312 21.224 351.056 20.768 347.6H23.168C23.624 350 25.28 351.248 27.968 351.248C30.56 351.248 32.024 350.048 32.024 348.32C32.024 346.472 30.44 345.752 28.28 345.248L26.12 344.792C23.72 344.264 21.344 342.92 21.344 340.04ZM39.287 335.6V342.032C40.031 340.808 41.279 339.872 43.463 339.872C46.583 339.872 47.711 341.888 47.711 344.84V353H45.527V345.488C45.527 343.496 45.191 341.768 42.695 341.768C40.583 341.768 39.287 343.208 39.287 345.992V353H37.103V335.6H39.287ZM62.378 347.264H52.442C52.514 350.048 54.53 351.392 56.426 351.392C58.346 351.392 59.402 350.528 59.954 349.256H62.21C61.634 351.464 59.57 353.312 56.426 353.312C52.346 353.312 50.09 350.384 50.09 346.568C50.09 342.464 52.826 339.872 56.354 339.872C60.314 339.872 62.642 343.16 62.378 347.264ZM56.354 341.744C54.434 341.744 52.658 342.8 52.466 345.392H60.074C60.002 343.568 58.682 341.744 56.354 341.744ZM24.512 367.6V385H22.064V367.6H24.512ZM28.9379 372.088V368.848H31.1219V372.088H33.5699V373.84H31.1219V381.496C31.1219 382.84 31.2179 383.176 32.4659 383.176H33.5699V385H31.9859C29.5139 385 28.9379 384.448 28.9379 381.76V373.84H26.8979V372.088H28.9379Z" fill="#1E1E1E"/>
<path d="M95.352 340.088V336.848H97.536V340.088H99.984V341.84H97.536V349.496C97.536 350.84 97.632 351.176 98.88 351.176H99.984V353H98.4C95.928 353 95.352 352.448 95.352 349.76V341.84H93.312V340.088H95.352ZM103.904 346.592C103.904 350.048 105.776 351.392 107.768 351.392C109.76 351.392 111.632 349.904 111.632 346.592C111.632 343.136 109.76 341.792 107.768 341.792C105.776 341.792 103.904 343.064 103.904 346.592ZM107.768 339.872C110.768 339.872 113.96 341.912 113.96 346.592C113.96 351.272 110.768 353.312 107.768 353.312C104.768 353.312 101.576 351.272 101.576 346.592C101.576 341.912 104.768 339.872 107.768 339.872ZM124.355 346.592C124.355 350 126.179 351.44 128.123 351.44C130.355 351.44 131.819 349.688 131.819 346.592C131.819 343.496 130.355 341.744 128.123 341.744C126.179 341.744 124.355 343.184 124.355 346.592ZM122.267 335.6H124.451V342.128C125.243 340.76 126.587 339.872 128.675 339.872C131.651 339.872 134.195 342.368 134.195 346.592C134.195 350.888 131.651 353.312 128.675 353.312C126.587 353.312 125.243 352.424 124.451 351.056V353H122.267V335.6ZM148.269 347.264H138.333C138.405 350.048 140.421 351.392 142.317 351.392C144.237 351.392 145.293 350.528 145.845 349.256H148.101C147.525 351.464 145.461 353.312 142.317 353.312C138.237 353.312 135.981 350.384 135.981 346.568C135.981 342.464 138.717 339.872 142.245 339.872C146.205 339.872 148.533 343.16 148.269 347.264ZM142.245 341.744C140.325 341.744 138.549 342.8 138.357 345.392H145.965C145.893 343.568 144.573 341.744 142.245 341.744ZM155.717 345.488H169.781L164.693 340.4L166.037 339.08L173.501 346.544L166.037 354.008L164.693 352.664L169.781 347.6H155.717V345.488ZM181.4 340.088H183.584V353H181.4V340.088ZM181.4 335.6H183.584V338.24H181.4V335.6ZM196.72 343.856H194.44C194.08 342.32 192.928 341.72 191.392 341.72C190.12 341.72 188.68 342.176 188.68 343.352C188.68 344.384 189.4 344.84 190.648 345.104L192.472 345.464C194.824 345.896 196.888 346.832 196.888 349.304C196.888 351.872 194.584 353.312 191.632 353.312C188.248 353.312 186.352 351.08 186.088 348.824H188.392C188.752 350.48 189.76 351.464 191.68 351.464C193.336 351.464 194.68 350.768 194.68 349.544C194.68 348.224 193.456 347.72 192.064 347.408L190.144 347.024C188.392 346.64 186.472 345.872 186.472 343.448C186.472 341.168 188.776 339.848 191.632 339.848C194.44 339.848 196.312 341.384 196.72 343.856Z" fill="#1E1E1E"/>
<path d="M95.352 92.088V88.848H97.536V92.088H99.984V93.84H97.536V101.496C97.536 102.84 97.632 103.176 98.88 103.176H99.984V105H98.4C95.928 105 95.352 104.448 95.352 101.76V93.84H93.312V92.088H95.352ZM103.904 98.592C103.904 102.048 105.776 103.392 107.768 103.392C109.76 103.392 111.632 101.904 111.632 98.592C111.632 95.136 109.76 93.792 107.768 93.792C105.776 93.792 103.904 95.064 103.904 98.592ZM107.768 91.872C110.768 91.872 113.96 93.912 113.96 98.592C113.96 103.272 110.768 105.312 107.768 105.312C104.768 105.312 101.576 103.272 101.576 98.592C101.576 93.912 104.768 91.872 107.768 91.872ZM124.355 98.592C124.355 102 126.179 103.44 128.123 103.44C130.355 103.44 131.819 101.688 131.819 98.592C131.819 95.496 130.355 93.744 128.123 93.744C126.179 93.744 124.355 95.184 124.355 98.592ZM122.267 87.6H124.451V94.128C125.243 92.76 126.587 91.872 128.675 91.872C131.651 91.872 134.195 94.368 134.195 98.592C134.195 102.888 131.651 105.312 128.675 105.312C126.587 105.312 125.243 104.424 124.451 103.056V105H122.267V87.6ZM148.269 99.264H138.333C138.405 102.048 140.421 103.392 142.317 103.392C144.237 103.392 145.293 102.528 145.845 101.256H148.101C147.525 103.464 145.461 105.312 142.317 105.312C138.237 105.312 135.981 102.384 135.981 98.568C135.981 94.464 138.717 91.872 142.245 91.872C146.205 91.872 148.533 95.16 148.269 99.264ZM142.245 93.744C140.325 93.744 138.549 94.8 138.357 97.392H145.965C145.893 95.568 144.573 93.744 142.245 93.744ZM155.717 97.488H169.781L164.693 92.4L166.037 91.08L173.501 98.544L166.037 106.008L164.693 104.664L169.781 99.6H155.717V97.488ZM189.536 99.6V98.784C185.576 99.168 183.056 99.768 183.056 101.544C183.056 102.768 183.992 103.584 185.552 103.584C187.592 103.584 189.536 102.648 189.536 99.6ZM185.072 105.312C182.648 105.312 180.632 103.968 180.632 101.592C180.632 98.544 184.088 97.632 189.368 97.056V96.744C189.368 94.368 188.072 93.6 186.44 93.6C184.616 93.6 183.584 94.56 183.488 96.168H181.232C181.424 93.384 183.92 91.824 186.416 91.824C189.992 91.824 191.576 93.504 191.552 97.152L191.528 100.128C191.504 102.312 191.6 103.776 191.864 105H189.656C189.584 104.52 189.512 103.992 189.488 103.224C188.696 104.568 187.376 105.312 185.072 105.312ZM196.99 97.992V105H194.806V92.088H196.99V94.032C197.734 92.808 198.934 91.872 200.878 91.872C202.87 91.872 204.022 92.712 204.598 94.152C205.63 92.544 207.118 91.872 208.942 91.872C211.942 91.872 213.118 93.888 213.118 96.84V105H210.934V97.488C210.934 95.496 210.55 93.768 208.174 93.768C206.278 93.768 205.054 95.208 205.054 97.992V105H202.87V97.488C202.87 95.496 202.486 93.768 200.11 93.768C198.214 93.768 196.99 95.208 196.99 97.992Z" fill="#1E1E1E"/>
</svg>
