<svg width="314" height="412" viewBox="0 0 314 412" fill="none" xmlns="http://www.w3.org/2000/svg">
<rect x="1" y="1" width="312" height="410" rx="9" stroke="#E3E3E3" stroke-width="2"/>
<path d="M23.794 69H22.52V61.062H20.168V60.194C21.61 60.152 22.38 59.942 22.926 58.85H23.794V69ZM35.5046 61.468V69H34.2306V62.574H31.6966L31.5846 64.394C31.4026 67.432 30.7446 69 28.9946 69H28.7566V67.894H28.8966C29.5686 67.894 30.2126 67.166 30.3666 64.044L30.4786 61.468H35.5046ZM42.828 69V63.316L38.936 69H37.662V61.468H38.936V67.152L42.828 61.468H44.102V69H42.828ZM52.2536 67.894H53.3036V70.806H52.0996V69H46.2616V61.468H47.5356V67.894H50.9796V61.468H52.2536V67.894ZM55.3858 65.262C55.3858 67.278 56.4778 68.062 57.6398 68.062C58.8018 68.062 59.8938 67.194 59.8938 65.262C59.8938 63.246 58.8018 62.462 57.6398 62.462C56.4778 62.462 55.3858 63.204 55.3858 65.262ZM57.6398 61.342C59.3898 61.342 61.2518 62.532 61.2518 65.262C61.2518 67.992 59.3898 69.182 57.6398 69.182C55.8898 69.182 54.0278 67.992 54.0278 65.262C54.0278 62.532 55.8898 61.342 57.6398 61.342Z" fill="#5A5A5A"/>
<path d="M24.228 134.668C26.104 134.668 27.448 135.606 27.448 137.328C27.448 139.68 24.998 141.752 22.156 143.81H27.728V145H20.42V143.852C24.004 141.206 26.104 139.302 26.104 137.496C26.104 136.432 25.418 135.732 24.2 135.732C23.108 135.732 22.058 136.334 22.016 138.014H20.7C20.658 135.998 22.058 134.668 24.228 134.668ZM38.6081 137.468V145H37.3341V138.574H34.8001L34.6881 140.394C34.5061 143.432 33.8481 145 32.0981 145H31.8601V143.894H32.0001C32.6721 143.894 33.3161 143.166 33.4701 140.044L33.5821 137.468H38.6081ZM45.9315 145V139.316L42.0395 145H40.7655V137.468H42.0395V143.152L45.9315 137.468H47.2055V145H45.9315ZM55.3571 143.894H56.4071V146.806H55.2031V145H49.3651V137.468H50.6391V143.894H54.0831V137.468H55.3571V143.894ZM58.4893 141.262C58.4893 143.278 59.5813 144.062 60.7433 144.062C61.9053 144.062 62.9973 143.194 62.9973 141.262C62.9973 139.246 61.9053 138.462 60.7433 138.462C59.5813 138.462 58.4893 139.204 58.4893 141.262ZM60.7433 137.342C62.4933 137.342 64.3553 138.532 64.3553 141.262C64.3553 143.992 62.4933 145.182 60.7433 145.182C58.9933 145.182 57.1313 143.992 57.1313 141.262C57.1313 138.532 58.9933 137.342 60.7433 137.342Z" fill="#5A5A5A"/>
<path d="M23.948 284.118C25.292 284.118 26.244 283.432 26.244 282.158C26.244 280.702 24.942 280.226 23.318 280.226H23.108V279.064H23.276C25.054 279.064 25.978 278.574 25.978 277.384C25.978 276.306 25.082 275.732 24.004 275.732C22.646 275.732 21.904 276.544 21.792 277.706H20.476C20.63 275.914 21.904 274.668 24.032 274.668C25.782 274.668 27.322 275.382 27.322 277.244C27.322 278.294 26.734 279.162 25.67 279.596C27.182 280.086 27.602 281.066 27.602 282.144C27.602 284.188 25.88 285.182 23.934 285.182C21.526 285.182 20.476 283.698 20.322 282.004H21.638C21.792 283.25 22.506 284.118 23.948 284.118ZM38.5671 277.468V285H37.2931V278.574H34.7591L34.6471 280.394C34.4651 283.432 33.8071 285 32.0571 285H31.8191V283.894H31.9591C32.6311 283.894 33.2751 283.166 33.4291 280.044L33.5411 277.468H38.5671ZM45.8905 285V279.316L41.9985 285H40.7245V277.468H41.9985V283.152L45.8905 277.468H47.1645V285H45.8905ZM55.3161 283.894H56.3661V286.806H55.1621V285H49.3241V277.468H50.5981V283.894H54.0421V277.468H55.3161V283.894ZM58.4483 281.262C58.4483 283.278 59.5403 284.062 60.7023 284.062C61.8643 284.062 62.9563 283.194 62.9563 281.262C62.9563 279.246 61.8643 278.462 60.7023 278.462C59.5403 278.462 58.4483 279.204 58.4483 281.262ZM60.7023 277.342C62.4523 277.342 64.3143 278.532 64.3143 281.262C64.3143 283.992 62.4523 285.182 60.7023 285.182C58.9523 285.182 57.0903 283.992 57.0903 281.262C57.0903 278.532 58.9523 277.342 60.7023 277.342Z" fill="#5A5A5A"/>
<path d="M24.512 87.6V105H22.064V87.6H24.512Z" fill="#1E1E1E"/>
<path d="M20 163.6H22.688L27.44 172.096L32.288 163.6H34.976L28.592 174.256V181H26.144V174.208L20 163.6ZM36.0363 174.592C36.0363 178.048 37.9083 179.392 39.9003 179.392C41.8923 179.392 43.7643 177.904 43.7643 174.592C43.7643 171.136 41.8923 169.792 39.9003 169.792C37.9083 169.792 36.0363 171.064 36.0363 174.592ZM39.9003 167.872C42.9003 167.872 46.0923 169.912 46.0923 174.592C46.0923 179.272 42.9003 181.312 39.9003 181.312C36.9003 181.312 33.7083 179.272 33.7083 174.592C33.7083 169.912 36.9003 167.872 39.9003 167.872ZM56.6966 181V179.152C55.9526 180.376 54.7766 181.312 52.6406 181.312C49.6646 181.312 48.5126 179.296 48.5126 176.344V168.088H50.6966V175.696C50.6966 177.688 51.0086 179.416 53.4086 179.416C55.4966 179.416 56.6966 177.976 56.6966 175.192V168.088H58.8806V181H56.6966ZM32.528 195.6L35.96 210.216L39.176 195.6H41.744L37.4 213H34.424L31.064 198.696L27.776 213H24.8L20.384 195.6H23.072L26.432 210.216L29.648 195.6H32.528ZM54.5264 207.264H44.5904C44.6624 210.048 46.6784 211.392 48.5744 211.392C50.4944 211.392 51.5504 210.528 52.1024 209.256H54.3584C53.7824 211.464 51.7184 213.312 48.5744 213.312C44.4944 213.312 42.2384 210.384 42.2384 206.568C42.2384 202.464 44.9744 199.872 48.5024 199.872C52.4624 199.872 54.7904 203.16 54.5264 207.264ZM48.5024 201.744C46.5824 201.744 44.8064 202.8 44.6144 205.392H52.2224C52.1504 203.568 50.8304 201.744 48.5024 201.744ZM25.664 245V229.712H20V227.6H33.776V229.712H28.112V245H25.664ZM37.2245 227.6V234.032C37.9685 232.808 39.2165 231.872 41.4005 231.872C44.5205 231.872 45.6485 233.888 45.6485 236.84V245H43.4645V237.488C43.4645 235.496 43.1285 233.768 40.6325 233.768C38.5205 233.768 37.2245 235.208 37.2245 237.992V245H35.0405V227.6H37.2245ZM60.3155 239.264H50.3795C50.4515 242.048 52.4675 243.392 54.3635 243.392C56.2835 243.392 57.3395 242.528 57.8915 241.256H60.1475C59.5715 243.464 57.5075 245.312 54.3635 245.312C50.2835 245.312 48.0275 242.384 48.0275 238.568C48.0275 234.464 50.7635 231.872 54.2915 231.872C58.2515 231.872 60.5795 235.16 60.3155 239.264ZM54.2915 233.744C52.3715 233.744 50.5955 234.8 50.4035 237.392H58.0115C57.9395 235.568 56.6195 233.744 54.2915 233.744ZM69.9196 232.088H72.1996L67.5916 245.552C66.6316 248.336 66.0076 249.2 63.1036 249.2H61.9756V247.376H62.8636C64.3036 247.376 64.9996 247.28 65.5756 245.264L65.6716 245L61.0156 232.088H63.4396L66.7276 242.048L69.9196 232.088Z" fill="#1E1E1E"/>
<path d="M33.656 303.6H36.104V321H33.656V313.104H24.512V321H22.064V303.6H24.512V310.992H33.656V303.6ZM51.2921 315.264H41.3561C41.4281 318.048 43.4441 319.392 45.3401 319.392C47.2601 319.392 48.3161 318.528 48.8681 317.256H51.1241C50.5481 319.464 48.4841 321.312 45.3401 321.312C41.2601 321.312 39.0041 318.384 39.0041 314.568C39.0041 310.464 41.7401 307.872 45.2681 307.872C49.2281 307.872 51.5561 311.16 51.2921 315.264ZM45.2681 309.744C43.3481 309.744 41.5721 310.8 41.3801 313.392H48.9881C48.9161 311.568 47.5961 309.744 45.2681 309.744ZM21.344 340.04C21.344 336.704 24.824 335.288 27.632 335.288C30.776 335.288 33.536 336.704 34.232 340.04H31.856C31.28 338.048 29.264 337.352 27.536 337.352C26.192 337.352 23.84 337.952 23.84 339.896C23.84 341.432 25.04 342.2 26.672 342.56L28.688 343.016C31.352 343.592 34.544 344.6 34.544 348.104C34.544 351.488 31.376 353.312 27.92 353.312C23.816 353.312 21.224 351.056 20.768 347.6H23.168C23.624 350 25.28 351.248 27.968 351.248C30.56 351.248 32.024 350.048 32.024 348.32C32.024 346.472 30.44 345.752 28.28 345.248L26.12 344.792C23.72 344.264 21.344 342.92 21.344 340.04ZM39.287 335.6V342.032C40.031 340.808 41.279 339.872 43.463 339.872C46.583 339.872 47.711 341.888 47.711 344.84V353H45.527V345.488C45.527 343.496 45.191 341.768 42.695 341.768C40.583 341.768 39.287 343.208 39.287 345.992V353H37.103V335.6H39.287ZM62.378 347.264H52.442C52.514 350.048 54.53 351.392 56.426 351.392C58.346 351.392 59.402 350.528 59.954 349.256H62.21C61.634 351.464 59.57 353.312 56.426 353.312C52.346 353.312 50.09 350.384 50.09 346.568C50.09 342.464 52.826 339.872 56.354 339.872C60.314 339.872 62.642 343.16 62.378 347.264ZM56.354 341.744C54.434 341.744 52.658 342.8 52.466 345.392H60.074C60.002 343.568 58.682 341.744 56.354 341.744ZM24.512 367.6V385H22.064V367.6H24.512ZM28.9379 372.088V368.848H31.1219V372.088H33.5699V373.84H31.1219V381.496C31.1219 382.84 31.2179 383.176 32.4659 383.176H33.5699V385H31.9859C29.5139 385 28.9379 384.448 28.9379 381.76V373.84H26.8979V372.088H28.9379Z" fill="#1E1E1E"/>
<path d="M107.944 101.64L110.512 92.088H112.768L115.336 101.64L117.808 92.088H120.16L116.44 105H114.448L111.592 94.608L108.832 105H106.84L103.12 92.088H105.472L107.944 101.64ZM129.903 99.6V98.784C125.943 99.168 123.423 99.768 123.423 101.544C123.423 102.768 124.359 103.584 125.919 103.584C127.959 103.584 129.903 102.648 129.903 99.6ZM125.439 105.312C123.015 105.312 120.999 103.968 120.999 101.592C120.999 98.544 124.455 97.632 129.735 97.056V96.744C129.735 94.368 128.439 93.6 126.807 93.6C124.983 93.6 123.951 94.56 123.855 96.168H121.599C121.791 93.384 124.287 91.824 126.783 91.824C130.359 91.824 131.943 93.504 131.919 97.152L131.895 100.128C131.871 102.312 131.967 103.776 132.231 105H130.023C129.951 104.52 129.879 103.992 129.855 103.224C129.063 104.568 127.743 105.312 125.439 105.312ZM144.845 95.856H142.565C142.205 94.32 141.053 93.72 139.517 93.72C138.245 93.72 136.805 94.176 136.805 95.352C136.805 96.384 137.525 96.84 138.773 97.104L140.597 97.464C142.949 97.896 145.013 98.832 145.013 101.304C145.013 103.872 142.709 105.312 139.757 105.312C136.373 105.312 134.477 103.08 134.213 100.824H136.517C136.877 102.48 137.885 103.464 139.805 103.464C141.461 103.464 142.805 102.768 142.805 101.544C142.805 100.224 141.581 99.72 140.189 99.408L138.269 99.024C136.517 98.64 134.597 97.872 134.597 95.448C134.597 93.168 136.901 91.848 139.757 91.848C142.565 91.848 144.437 93.384 144.845 95.856Z" fill="#1E1E1E"/>
<path d="M107.944 209.64L110.512 200.088H112.768L115.336 209.64L117.808 200.088H120.16L116.44 213H114.448L111.592 202.608L108.832 213H106.84L103.12 200.088H105.472L107.944 209.64ZM133.284 207.264H123.348C123.42 210.048 125.436 211.392 127.332 211.392C129.252 211.392 130.308 210.528 130.86 209.256H133.116C132.54 211.464 130.476 213.312 127.332 213.312C123.252 213.312 120.996 210.384 120.996 206.568C120.996 202.464 123.732 199.872 127.26 199.872C131.22 199.872 133.548 203.16 133.284 207.264ZM127.26 201.744C125.34 201.744 123.564 202.8 123.372 205.392H130.98C130.908 203.568 129.588 201.744 127.26 201.744ZM142.262 200.04V202.368C141.806 202.296 141.398 202.272 141.038 202.272C139.022 202.272 138.014 203.376 138.014 206.232V213H135.83V200.088H137.966V202.344C138.614 200.88 139.91 200.088 141.614 200.016C141.83 200.016 141.998 200.016 142.262 200.04ZM155.526 207.264H145.59C145.662 210.048 147.678 211.392 149.574 211.392C151.494 211.392 152.55 210.528 153.102 209.256H155.358C154.782 211.464 152.718 213.312 149.574 213.312C145.494 213.312 143.238 210.384 143.238 206.568C143.238 202.464 145.974 199.872 149.502 199.872C153.462 199.872 155.79 203.16 155.526 207.264ZM149.502 201.744C147.582 201.744 145.806 202.8 145.614 205.392H153.222C153.15 203.568 151.83 201.744 149.502 201.744Z" fill="#1E1E1E"/>
<path d="M107.944 349.64L110.512 340.088H112.768L115.336 349.64L117.808 340.088H120.16L116.44 353H114.448L111.592 342.608L108.832 353H106.84L103.12 340.088H105.472L107.944 349.64ZM129.903 347.6V346.784C125.943 347.168 123.423 347.768 123.423 349.544C123.423 350.768 124.359 351.584 125.919 351.584C127.959 351.584 129.903 350.648 129.903 347.6ZM125.439 353.312C123.015 353.312 120.999 351.968 120.999 349.592C120.999 346.544 124.455 345.632 129.735 345.056V344.744C129.735 342.368 128.439 341.6 126.807 341.6C124.983 341.6 123.951 342.56 123.855 344.168H121.599C121.791 341.384 124.287 339.824 126.783 339.824C130.359 339.824 131.943 341.504 131.919 345.152L131.895 348.128C131.871 350.312 131.967 351.776 132.231 353H130.023C129.951 352.52 129.879 351.992 129.855 351.224C129.063 352.568 127.743 353.312 125.439 353.312ZM144.845 343.856H142.565C142.205 342.32 141.053 341.72 139.517 341.72C138.245 341.72 136.805 342.176 136.805 343.352C136.805 344.384 137.525 344.84 138.773 345.104L140.597 345.464C142.949 345.896 145.013 346.832 145.013 349.304C145.013 351.872 142.709 353.312 139.757 353.312C136.373 353.312 134.477 351.08 134.213 348.824H136.517C136.877 350.48 137.885 351.464 139.805 351.464C141.461 351.464 142.805 350.768 142.805 349.544C142.805 348.224 141.581 347.72 140.189 347.408L138.269 347.024C136.517 346.64 134.597 345.872 134.597 343.448C134.597 341.168 136.901 339.848 139.757 339.848C142.565 339.848 144.437 341.384 144.845 343.856Z" fill="#1E1E1E"/>
<path d="M226.864 99.6V98.784C222.904 99.168 220.384 99.768 220.384 101.544C220.384 102.768 221.32 103.584 222.88 103.584C224.92 103.584 226.864 102.648 226.864 99.6ZM222.4 105.312C219.976 105.312 217.96 103.968 217.96 101.592C217.96 98.544 221.416 97.632 226.696 97.056V96.744C226.696 94.368 225.4 93.6 223.768 93.6C221.944 93.6 220.912 94.56 220.816 96.168H218.56C218.752 93.384 221.248 91.824 223.744 91.824C227.32 91.824 228.904 93.504 228.88 97.152L228.856 100.128C228.832 102.312 228.928 103.776 229.192 105H226.984C226.912 104.52 226.84 103.992 226.816 103.224C226.024 104.568 224.704 105.312 222.4 105.312ZM234.318 97.992V105H232.134V92.088H234.318V94.032C235.062 92.808 236.262 91.872 238.206 91.872C240.198 91.872 241.35 92.712 241.926 94.152C242.958 92.544 244.446 91.872 246.27 91.872C249.27 91.872 250.446 93.888 250.446 96.84V105H248.262V97.488C248.262 95.496 247.878 93.768 245.502 93.768C243.606 93.768 242.382 95.208 242.382 97.992V105H240.198V97.488C240.198 95.496 239.814 93.768 237.438 93.768C235.542 93.768 234.318 95.208 234.318 97.992Z" fill="#1E1E1E"/>
<path d="M226.864 207.6V206.784C222.904 207.168 220.384 207.768 220.384 209.544C220.384 210.768 221.32 211.584 222.88 211.584C224.92 211.584 226.864 210.648 226.864 207.6ZM222.4 213.312C219.976 213.312 217.96 211.968 217.96 209.592C217.96 206.544 221.416 205.632 226.696 205.056V204.744C226.696 202.368 225.4 201.6 223.768 201.6C221.944 201.6 220.912 202.56 220.816 204.168H218.56C218.752 201.384 221.248 199.824 223.744 199.824C227.32 199.824 228.904 201.504 228.88 205.152L228.856 208.128C228.832 210.312 228.928 211.776 229.192 213H226.984C226.912 212.52 226.84 211.992 226.816 211.224C226.024 212.568 224.704 213.312 222.4 213.312ZM238.566 200.04V202.368C238.11 202.296 237.702 202.272 237.342 202.272C235.326 202.272 234.318 203.376 234.318 206.232V213H232.134V200.088H234.27V202.344C234.918 200.88 236.214 200.088 237.918 200.016C238.134 200.016 238.302 200.016 238.566 200.04ZM251.831 207.264H241.895C241.967 210.048 243.983 211.392 245.879 211.392C247.799 211.392 248.855 210.528 249.407 209.256H251.663C251.087 211.464 249.023 213.312 245.879 213.312C241.799 213.312 239.543 210.384 239.543 206.568C239.543 202.464 242.279 199.872 245.807 199.872C249.767 199.872 252.095 203.16 251.831 207.264ZM245.807 201.744C243.887 201.744 242.111 202.8 241.919 205.392H249.527C249.455 203.568 248.135 201.744 245.807 201.744Z" fill="#1E1E1E"/>
<path d="M218.728 340.088H220.912V353H218.728V340.088ZM218.728 335.6H220.912V338.24H218.728V335.6ZM234.048 343.856H231.768C231.408 342.32 230.256 341.72 228.72 341.72C227.448 341.72 226.008 342.176 226.008 343.352C226.008 344.384 226.728 344.84 227.976 345.104L229.8 345.464C232.152 345.896 234.216 346.832 234.216 349.304C234.216 351.872 231.912 353.312 228.96 353.312C225.576 353.312 223.68 351.08 223.416 348.824H225.72C226.08 350.48 227.088 351.464 229.008 351.464C230.664 351.464 232.008 350.768 232.008 349.544C232.008 348.224 230.784 347.72 229.392 347.408L227.472 347.024C225.72 346.64 223.8 345.872 223.8 343.448C223.8 341.168 226.104 339.848 228.96 339.848C231.768 339.848 233.64 341.384 234.048 343.856Z" fill="#1E1E1E"/>
<path d="M112.268 33H110.84V24.082H105.772V33H104.344V22.85H112.268V33ZM114.687 25.468H115.961V26.658C116.423 25.86 117.207 25.342 118.425 25.342C120.161 25.342 121.645 26.798 121.645 29.262C121.645 31.768 120.161 33.182 118.425 33.182C117.207 33.182 116.423 32.664 115.961 31.866V35.45H114.687V25.468ZM115.905 29.262C115.905 31.25 116.969 32.09 118.103 32.09C119.405 32.09 120.259 31.068 120.259 29.262C120.259 27.456 119.405 26.434 118.103 26.434C116.969 26.434 115.905 27.274 115.905 29.262ZM124.126 29.262C124.126 31.278 125.218 32.062 126.38 32.062C127.542 32.062 128.634 31.194 128.634 29.262C128.634 27.246 127.542 26.462 126.38 26.462C125.218 26.462 124.126 27.204 124.126 29.262ZM126.38 25.342C128.13 25.342 129.992 26.532 129.992 29.262C129.992 31.992 128.13 33.182 126.38 33.182C124.63 33.182 122.768 31.992 122.768 29.262C122.768 26.532 124.63 25.342 126.38 25.342ZM140.868 25.468V33H131.586V25.468H132.86V31.894H135.59V25.468H136.864V31.894H139.594V25.468H140.868ZM149.609 29.654H143.813C143.855 31.278 145.031 32.062 146.137 32.062C147.257 32.062 147.873 31.558 148.195 30.816H149.511C149.175 32.104 147.971 33.182 146.137 33.182C143.757 33.182 142.441 31.474 142.441 29.248C142.441 26.854 144.037 25.342 146.095 25.342C148.405 25.342 149.763 27.26 149.609 29.654ZM146.095 26.434C144.975 26.434 143.939 27.05 143.827 28.562H148.265C148.223 27.498 147.453 26.434 146.095 26.434ZM158.083 31.894V34.666H156.851V33H151.335V34.666H150.103V31.894H150.439C151.293 31.894 151.741 30.774 151.853 27.89L151.951 25.468H157.033V31.894H158.083ZM155.759 31.894V26.574H153.183L153.113 28.016C153.001 30.242 152.679 31.334 152.091 31.894H155.759ZM168.649 25.468V33H159.367V25.468H160.641V31.894H163.371V25.468H164.645V31.894H167.375V25.468H168.649ZM177.39 29.654H171.594C171.636 31.278 172.812 32.062 173.918 32.062C175.038 32.062 175.654 31.558 175.976 30.816H177.292C176.956 32.104 175.752 33.182 173.918 33.182C171.538 33.182 170.222 31.474 170.222 29.248C170.222 26.854 171.818 25.342 173.876 25.342C176.186 25.342 177.544 27.26 177.39 29.654ZM173.876 26.434C172.756 26.434 171.72 27.05 171.608 28.562H176.046C176.004 27.498 175.234 26.434 173.876 26.434ZM185.607 29.654H179.811C179.853 31.278 181.029 32.062 182.135 32.062C183.255 32.062 183.871 31.558 184.193 30.816H185.509C185.173 32.104 183.969 33.182 182.135 33.182C179.755 33.182 178.439 31.474 178.439 29.248C178.439 26.854 180.035 25.342 182.093 25.342C184.403 25.342 185.761 27.26 185.607 29.654ZM182.093 26.434C180.973 26.434 179.937 27.05 179.825 28.562H184.263C184.221 27.498 183.451 26.434 182.093 26.434Z" fill="#5A5A5A"/>
<path d="M225.106 22.85H226.534V33H225.106V28.394H219.772V33H218.344V22.85H219.772V27.162H225.106V22.85ZM233.637 29.85V29.374C231.327 29.598 229.857 29.948 229.857 30.984C229.857 31.698 230.403 32.174 231.313 32.174C232.503 32.174 233.637 31.628 233.637 29.85ZM231.033 33.182C229.619 33.182 228.443 32.398 228.443 31.012C228.443 29.234 230.459 28.702 233.539 28.366V28.184C233.539 26.798 232.783 26.35 231.831 26.35C230.767 26.35 230.165 26.91 230.109 27.848H228.793C228.905 26.224 230.361 25.314 231.817 25.314C233.903 25.314 234.827 26.294 234.813 28.422L234.799 30.158C234.785 31.432 234.841 32.286 234.995 33H233.707C233.665 32.72 233.623 32.412 233.609 31.964C233.147 32.748 232.377 33.182 231.033 33.182ZM239.833 25.342C241.681 25.342 242.801 26.7 242.983 27.988H241.695C241.513 27.092 240.743 26.462 239.749 26.462C238.629 26.462 237.579 27.344 237.579 29.234C237.579 31.138 238.629 32.062 239.749 32.062C240.827 32.062 241.569 31.334 241.751 30.55H243.067C242.801 31.964 241.471 33.182 239.707 33.182C237.537 33.182 236.193 31.544 236.193 29.248C236.193 27.008 237.607 25.342 239.833 25.342ZM249.886 26.574H247.31V33H246.036V26.574H243.46V25.468H249.886V26.574ZM251.73 29.262C251.73 31.278 252.822 32.062 253.984 32.062C255.146 32.062 256.238 31.194 256.238 29.262C256.238 27.246 255.146 26.462 253.984 26.462C252.822 26.462 251.73 27.204 251.73 29.262ZM253.984 25.342C255.734 25.342 257.596 26.532 257.596 29.262C257.596 31.992 255.734 33.182 253.984 33.182C252.234 33.182 250.372 31.992 250.372 29.262C250.372 26.532 252.234 25.342 253.984 25.342ZM264.761 25.468V33H263.487V30.326H262.157C262.087 30.326 262.017 30.326 261.947 30.312L259.903 33H258.321L260.603 29.962C259.651 29.64 259.007 28.912 259.007 27.792C259.007 26.238 260.071 25.468 261.807 25.468H264.761ZM263.487 26.574H261.877C260.939 26.574 260.309 26.966 260.309 27.876C260.309 28.898 261.107 29.22 261.989 29.22H263.487V26.574ZM277.246 31.894V34.806H276.042V33H266.914V25.468H268.188V31.894H270.918V25.468H272.192V31.894H274.922V25.468H276.196V31.894H277.246ZM285.115 29.654H279.319C279.361 31.278 280.537 32.062 281.643 32.062C282.763 32.062 283.379 31.558 283.701 30.816H285.017C284.681 32.104 283.477 33.182 281.643 33.182C279.263 33.182 277.947 31.474 277.947 29.248C277.947 26.854 279.543 25.342 281.601 25.342C283.911 25.342 285.269 27.26 285.115 29.654ZM281.601 26.434C280.481 26.434 279.445 27.05 279.333 28.562H283.771C283.729 27.498 282.959 26.434 281.601 26.434ZM293.332 29.654H287.536C287.578 31.278 288.754 32.062 289.86 32.062C290.98 32.062 291.596 31.558 291.918 30.816H293.234C292.898 32.104 291.694 33.182 289.86 33.182C287.48 33.182 286.164 31.474 286.164 29.248C286.164 26.854 287.76 25.342 289.818 25.342C292.128 25.342 293.486 27.26 293.332 29.654ZM289.818 26.434C288.698 26.434 287.662 27.05 287.55 28.562H291.988C291.946 27.498 291.176 26.434 289.818 26.434Z" fill="#5A5A5A"/>
</svg>
