<svg width="186" height="41" viewBox="0 0 186 41" fill="none" xmlns="http://www.w3.org/2000/svg">
<path d="M48.3848 23.71C47.8333 23.4665 47.4001 23.1621 47.085 22.7969C46.777 22.4316 46.5729 22.0879 46.4727 21.7656C46.3151 21.2858 46.2363 20.874 46.2363 20.5303C46.2363 20.1865 46.3473 19.7926 46.5693 19.3486C46.7985 18.9046 47.1745 18.4642 47.6973 18.0273C48.8431 17.0749 50.6012 16.2585 52.9717 15.5781C52.2126 15.2559 51.7793 14.7438 51.6719 14.042C51.5645 13.2399 51.9082 12.5273 52.7031 11.9043C54.1712 10.7513 56.9928 9.9707 61.168 9.5625C62.457 9.44076 63.3916 9.37988 63.9717 9.37988C64.5589 9.37988 64.9743 9.47298 65.2178 9.65918C65.4684 9.84538 65.6152 10.1247 65.6582 10.4971C65.7083 10.8623 65.6403 11.1702 65.4541 11.4209C65.2679 11.6715 65.0029 11.8721 64.6592 12.0225C64.0218 12.3018 63.1517 12.4414 62.0488 12.4414C61.2396 12.4414 60.502 12.3197 59.8359 12.0762C59.6569 12.0046 59.5173 11.9294 59.417 11.8506C57.9847 12.2946 57.1719 12.7923 56.9785 13.3438C56.9212 13.487 56.8997 13.6195 56.9141 13.7412C56.9785 14.1781 57.265 14.5003 57.7734 14.708C58.2819 14.9157 59.0553 15.0482 60.0938 15.1055C60.4375 15.1341 60.6917 15.2272 60.8564 15.3848C61.0283 15.5423 61.125 15.707 61.1465 15.8789C61.1751 16.0508 61.1644 16.1868 61.1143 16.2871C61.0641 16.3802 60.9889 16.459 60.8887 16.5234C60.7168 16.638 60.3766 16.7347 59.8682 16.8135C59.3597 16.8923 58.7689 17.0033 58.0957 17.1465C57.4225 17.2826 56.7816 17.4294 56.1729 17.5869C55.5641 17.7445 54.9984 17.9056 54.4756 18.0703C53.96 18.235 53.5124 18.3926 53.1328 18.543C52.3307 18.8796 51.944 19.1517 51.9727 19.3594C52.0013 19.5599 52.0837 19.7354 52.2197 19.8857C52.3558 20.0361 52.5384 20.1686 52.7676 20.2832C53.1973 20.4837 53.7201 20.6126 54.3359 20.6699C54.959 20.7201 55.5605 20.7451 56.1406 20.7451C56.7279 20.7451 57.3545 20.6986 58.0205 20.6055C58.6937 20.5052 59.3203 20.3799 59.9004 20.2295C60.4876 20.0791 61.0247 19.9215 61.5117 19.7568C62.0059 19.585 62.4355 19.4238 62.8008 19.2734L63.6816 18.9082C63.9108 18.8079 64.1185 18.7578 64.3047 18.7578C64.7988 18.7578 65.0781 19.0192 65.1426 19.542C65.2285 20.251 64.4336 21.0495 62.7578 21.9375C60.5163 23.1335 58.0384 23.9141 55.3242 24.2793C54.694 24.3652 53.9349 24.4082 53.0469 24.4082C52.166 24.4082 51.3066 24.3509 50.4688 24.2363C49.6309 24.1217 48.9362 23.9463 48.3848 23.71ZM75.0576 19.2305C75.5732 20.0469 76.1211 20.4551 76.7012 20.4551C77.2884 20.4551 78.3949 19.918 80.0205 18.8438L81.1914 18.0488C81.5423 17.7982 81.8359 17.5833 82.0723 17.4043C82.3086 17.2181 82.5127 17.0605 82.6846 16.9316C83.0713 16.6309 83.5153 16.4805 84.0166 16.4805C84.1742 16.4805 84.3245 16.527 84.4678 16.6201C84.6182 16.7132 84.6934 16.8421 84.6934 17.0068C84.6934 17.1644 84.6683 17.3255 84.6182 17.4902C84.5752 17.6478 84.5072 17.8125 84.4141 17.9844C84.2135 18.3926 84.0202 18.7005 83.834 18.9082C83.6549 19.1159 83.4616 19.3236 83.2539 19.5312C83.0462 19.7389 82.792 19.9788 82.4912 20.251C82.1976 20.5231 81.8574 20.8203 81.4707 21.1426C81.0911 21.4577 80.6829 21.7728 80.2461 22.0879C79.8092 22.403 79.3473 22.7074 78.8604 23.001C78.3805 23.2946 77.8864 23.5524 77.3779 23.7744C76.2464 24.2686 75.2295 24.5156 74.3271 24.5156C73.3317 24.5156 72.5153 23.9714 71.8779 22.8828C71.6917 22.5605 71.5199 22.224 71.3623 21.873L68.0322 24.2578C67.5023 24.6732 67.026 24.8809 66.6035 24.8809C66.3743 24.8809 66.1774 24.8164 66.0127 24.6875C65.6976 24.444 65.54 24.1826 65.54 23.9033C65.54 23.624 65.5938 23.4163 65.7012 23.2803C65.8014 23.137 65.9339 22.9938 66.0986 22.8506L70.3311 19.209C70.0088 18.457 69.6829 18.0811 69.3535 18.0811C68.8737 18.0811 68.3867 18.2816 67.8926 18.6826L67.4199 19.0586C66.7467 19.61 66.1488 19.8857 65.626 19.8857C65.4183 19.8857 65.2285 19.8213 65.0566 19.6924C64.7201 19.4417 64.5518 19.1517 64.5518 18.8223C64.5518 18.4928 64.9134 18.0273 65.6367 17.4258L66.0557 17.0713C66.2419 16.8994 66.4316 16.7311 66.625 16.5664L68.8271 14.7725C69.887 13.9489 70.7572 13.5371 71.4375 13.5371C72.0319 13.5371 72.612 14.1136 73.1777 15.2666C73.3424 15.6032 73.5072 15.9577 73.6719 16.3301L75.6484 14.6328C76.7943 13.666 77.6536 13.1826 78.2266 13.1826C78.6634 13.1826 79.0645 13.3115 79.4297 13.5693C80.11 14.0492 80.4502 14.5075 80.4502 14.9443C80.4502 15.2165 80.3356 15.4206 80.1064 15.5566C80.0635 15.5781 79.9883 15.6283 79.8809 15.707L77.4531 17.5117L75.0576 19.2305ZM86.2725 21.3145C86.5088 21.2142 86.8382 21.0566 87.2607 20.8418C89.846 19.5169 91.264 18.7865 91.5146 18.6504L91.9658 18.4033C92.4313 18.1025 92.6462 17.8662 92.6104 17.6943C92.5316 17.3291 92.3346 17.1823 92.0195 17.2539C91.7044 17.3184 91.375 17.4079 91.0312 17.5225C90.6947 17.637 90.3366 17.7767 89.957 17.9414C89.1621 18.2708 88.4639 18.6003 87.8623 18.9297C85.7568 20.14 84.4893 20.874 84.0596 21.1318C83.7516 21.8265 83.4759 22.5176 83.2324 23.2051L81.9326 26.8789C81.5244 28.0176 81.1126 28.7874 80.6973 29.1885C80.4753 29.4105 80.2282 29.5215 79.9561 29.5215C79.2829 29.5215 78.7529 29.2852 78.3662 28.8125C77.9795 28.347 77.7861 27.7526 77.7861 27.0293C77.7861 26.3132 77.8792 25.6042 78.0654 24.9023C78.2516 24.2077 78.5094 23.5023 78.8389 22.7861C79.5049 21.3395 80.3965 19.9896 81.5137 18.7363C82.194 16.9102 83.3255 15.1377 84.9082 13.4189C85.875 12.3734 86.7738 11.6357 87.6045 11.2061C88.0199 10.9912 88.3743 10.8838 88.668 10.8838C88.9616 10.8838 89.1836 10.9518 89.334 11.0879C89.4844 11.2168 89.5596 11.3815 89.5596 11.582C89.5596 11.7754 89.4987 12.0225 89.377 12.3232C89.2552 12.624 89.0905 12.9606 88.8828 13.333C88.6751 13.7054 88.4316 14.1029 88.1523 14.5254L87.2607 15.8252C87.1891 15.9326 87.1533 16.0293 87.1533 16.1152C87.1533 16.2513 87.2357 16.3193 87.4004 16.3193C87.5866 16.3193 87.9303 16.2012 88.4316 15.9648L90.1504 15.1699C91.6543 14.4896 93.0938 14.1494 94.4688 14.1494C95.1849 14.1494 95.8581 14.4896 96.4883 15.1699C97.1257 15.8574 97.4443 16.5951 97.4443 17.3828C97.4443 18.6003 96.9466 19.5384 95.9512 20.1973L94.6191 21.0781C94.1393 21.3789 93.6452 21.6761 93.1367 21.9697L91.5898 22.8184C89.8496 23.7207 88.5033 24.1719 87.5508 24.1719C86.6055 24.1719 85.918 24.0537 85.4883 23.8174C85.0586 23.5811 84.8438 23.248 84.8438 22.8184C84.8438 22.2383 85.32 21.737 86.2725 21.3145ZM109.83 16.416C110.288 16.416 110.518 16.6058 110.518 16.9854C110.518 17.4508 110.238 18.0059 109.68 18.6504C108.756 19.7246 107.667 20.7702 106.414 21.7871C104.373 23.4199 102.55 24.2363 100.946 24.2363C99.7933 24.2363 98.848 23.735 98.1104 22.7324C97.3441 21.6868 96.9609 20.2832 96.9609 18.5215C96.9609 16.2083 98.0889 13.6517 100.345 10.8516C101.777 9.06836 103.127 7.85807 104.395 7.2207C104.788 7.02018 105.089 6.91992 105.297 6.91992C105.512 6.91992 105.705 6.95573 105.877 7.02734C106.056 7.0918 106.221 7.1849 106.371 7.30664C106.722 7.60026 106.897 7.95475 106.897 8.37012C106.897 8.78548 106.783 9.27962 106.554 9.85254C106.325 10.4183 105.992 11.0234 105.555 11.668C104.631 13.0358 103.381 14.3464 101.806 15.5996C101.397 16.3802 101.193 17.3184 101.193 18.4141C101.193 18.9082 101.351 19.3737 101.666 19.8105C101.988 20.2474 102.343 20.4658 102.729 20.4658C103.259 20.4658 104.273 19.918 105.77 18.8223L107.682 17.3506C108.462 16.7275 109.178 16.416 109.83 16.416ZM126.771 15.9326C127 15.9326 127.114 16.126 127.114 16.5127C127.114 17.1787 126.649 18.0417 125.718 19.1016L125.105 19.7246C123.251 21.5794 121.503 22.8148 119.863 23.4307C118.846 23.8102 118.116 23.7923 117.672 23.377C117.307 23.026 117.017 22.4603 116.802 21.6797L116.544 20.7451L114.256 22.1523L112.935 22.9043C111.359 23.7637 110.177 24.1934 109.39 24.1934C108.38 24.1934 107.538 23.8031 106.865 23.0225C106.221 22.2848 105.898 21.429 105.898 20.4551C105.898 19.4954 106.282 18.6396 107.048 17.8877C108.144 16.8135 109.873 15.8288 112.236 14.9336C114.471 14.0957 116.275 13.6768 117.65 13.6768C118.116 13.6768 118.349 13.9059 118.349 14.3643C118.349 14.6794 118.288 14.9157 118.166 15.0732C118.044 15.2308 117.794 15.3919 117.414 15.5566L116.061 16.1367C114.055 16.9746 112.587 17.8447 111.656 18.7471C111.391 18.9977 111.259 19.2412 111.259 19.4775C111.259 19.7139 111.449 19.832 111.828 19.832C112.201 19.832 113.067 19.431 114.428 18.6289L115.319 18.1025C116.701 17.2718 117.858 16.8564 118.789 16.8564C119.577 16.8564 120.1 17.2038 120.357 17.8984C120.422 18.0846 120.483 18.2744 120.54 18.4678C120.597 18.654 120.655 18.8223 120.712 18.9727C120.841 19.3236 120.955 19.499 121.056 19.499C121.163 19.499 121.313 19.4489 121.507 19.3486C121.7 19.2412 121.911 19.1087 122.141 18.9512C122.377 18.7865 122.62 18.6074 122.871 18.4141L124.171 17.3721C125.324 16.4124 126.19 15.9326 126.771 15.9326ZM133.882 11.582C133.674 11.7539 133.449 11.8971 133.205 12.0117C132.962 12.1191 132.689 12.1729 132.389 12.1729C132.088 12.1729 131.798 12.1227 131.519 12.0225C131.239 11.9222 130.996 11.7826 130.788 11.6035C130.337 11.2168 130.111 10.7227 130.111 10.1211C130.111 9.19727 130.885 8.50977 132.432 8.05859C132.954 7.90104 133.384 7.82227 133.721 7.82227C134.057 7.82227 134.308 7.86165 134.473 7.94043C134.645 8.01204 134.784 8.10872 134.892 8.23047C135.106 8.47396 135.214 8.72461 135.214 8.98242C135.214 9.23307 135.182 9.46224 135.117 9.66992C135.06 9.8776 134.974 10.0924 134.859 10.3145C134.745 10.5365 134.605 10.7585 134.44 10.9805C134.276 11.2025 134.09 11.403 133.882 11.582ZM131.175 23.4092C130.631 23.6885 130.101 23.9105 129.585 24.0752C129.069 24.2471 128.561 24.333 128.06 24.333C127.565 24.333 127.05 24.2148 126.513 23.9785C125.983 23.735 125.51 23.4128 125.095 23.0117C124.171 22.1165 123.709 21.1211 123.709 20.0254C123.709 19.0156 124.01 17.9915 124.611 16.9531C125.163 16.015 125.865 15.2272 126.717 14.5898C127.569 13.9525 128.36 13.6338 129.091 13.6338C130.136 13.6338 130.695 13.9274 130.767 14.5146C130.788 14.6937 130.799 14.9014 130.799 15.1377C130.799 15.374 130.742 15.6462 130.627 15.9541C130.52 16.2549 130.376 16.5592 130.197 16.8672C130.025 17.168 129.832 17.4652 129.617 17.7588C129.41 18.0452 129.209 18.3066 129.016 18.543C128.643 18.9941 128.346 19.32 128.124 19.5205C128.124 19.764 128.307 20.0146 128.672 20.2725C129.016 20.516 129.306 20.6377 129.542 20.6377C129.785 20.6377 130.068 20.5804 130.391 20.4658C130.72 20.3512 131.057 20.1973 131.4 20.0039C131.751 19.8105 132.106 19.5885 132.464 19.3379C132.829 19.0872 133.187 18.8294 133.538 18.5645L135.504 17.0283C136.285 16.4626 136.918 16.1797 137.405 16.1797C137.599 16.1797 137.745 16.2513 137.846 16.3945C137.953 16.5306 138.007 16.6917 138.007 16.8779C138.007 17.0641 137.914 17.3219 137.728 17.6514C137.541 17.9736 137.284 18.3317 136.954 18.7256C136.632 19.1195 136.252 19.5312 135.815 19.9609C135.379 20.3906 134.906 20.8132 134.397 21.2285C133.889 21.6439 133.359 22.0413 132.808 22.4209C132.263 22.7933 131.719 23.1227 131.175 23.4092ZM147.481 18.2314C147.481 18.8831 147.671 19.209 148.051 19.209C148.982 19.209 150.192 18.5788 151.682 17.3184L151.972 17.0713C152.552 16.6846 153.021 16.4912 153.379 16.4912C153.744 16.4912 153.973 16.5449 154.066 16.6523C154.167 16.7598 154.217 16.9316 154.217 17.168C154.217 17.6979 153.948 18.2601 153.411 18.8545C152.609 19.8285 151.51 20.7523 150.113 21.626C148.495 22.6429 147.045 23.1514 145.763 23.1514C144.868 23.1514 144.305 22.6536 144.076 21.6582C144.012 21.4004 143.965 21.1533 143.937 20.917C143.865 20.3441 143.79 20.0254 143.711 19.9609C143.632 19.8965 143.475 19.9036 143.238 19.9824C143.009 20.054 142.733 20.1794 142.411 20.3584C142.096 20.5303 141.745 20.7415 141.358 20.9922C139.31 22.3529 138.132 23.1299 137.824 23.3232C137.087 23.7816 136.589 24.0107 136.331 24.0107C136.073 24.0107 135.819 23.957 135.568 23.8496C135.325 23.7422 135.11 23.6061 134.924 23.4414C134.537 23.0762 134.344 22.7038 134.344 22.3242C134.344 20.1543 134.816 18.2565 135.762 16.6309C136.392 15.5352 137.165 14.776 138.082 14.3535C138.548 14.1315 139.049 14.0205 139.586 14.0205C140.567 14.0205 141.058 14.3428 141.058 14.9873C141.058 15.3812 140.825 16.0257 140.359 16.9209L140.037 17.5547C139.808 17.9915 139.697 18.2386 139.704 18.2959C139.747 18.5107 139.844 18.6182 139.994 18.6182C140.159 18.6182 140.402 18.4964 140.725 18.2529L142.701 16.7812L143.689 16.0938C144.828 15.349 145.666 14.9766 146.203 14.9766C146.49 14.9766 146.751 15.0911 146.987 15.3203C147.424 15.7357 147.643 16.0973 147.643 16.4053C147.643 16.5055 147.632 16.6273 147.61 16.7705C147.596 16.9137 147.578 17.0677 147.557 17.2324L147.514 17.7373C147.492 17.9092 147.481 18.0739 147.481 18.2314ZM170.47 11.582C170.262 11.7539 170.036 11.8971 169.793 12.0117C169.549 12.1191 169.277 12.1729 168.977 12.1729C168.676 12.1729 168.386 12.1227 168.106 12.0225C167.827 11.9222 167.584 11.7826 167.376 11.6035C166.925 11.2168 166.699 10.7227 166.699 10.1211C166.699 9.19727 167.473 8.50977 169.02 8.05859C169.542 7.90104 169.972 7.82227 170.309 7.82227C170.645 7.82227 170.896 7.86165 171.061 7.94043C171.232 8.01204 171.372 8.10872 171.479 8.23047C171.694 8.47396 171.802 8.72461 171.802 8.98242C171.802 9.23307 171.77 9.46224 171.705 9.66992C171.648 9.8776 171.562 10.0924 171.447 10.3145C171.333 10.5365 171.193 10.7585 171.028 10.9805C170.864 11.2025 170.677 11.403 170.47 11.582ZM167.763 23.4092C167.218 23.6885 166.688 23.9105 166.173 24.0752C165.657 24.2471 165.149 24.333 164.647 24.333C164.153 24.333 163.638 24.2148 163.101 23.9785C162.571 23.735 162.098 23.4128 161.683 23.0117C160.759 22.1165 160.297 21.1211 160.297 20.0254C160.297 19.0156 160.598 17.9915 161.199 16.9531C161.751 16.015 162.452 15.2272 163.305 14.5898C164.157 13.9525 164.948 13.6338 165.679 13.6338C166.724 13.6338 167.283 13.9274 167.354 14.5146C167.376 14.6937 167.387 14.9014 167.387 15.1377C167.387 15.374 167.329 15.6462 167.215 15.9541C167.107 16.2549 166.964 16.5592 166.785 16.8672C166.613 17.168 166.42 17.4652 166.205 17.7588C165.997 18.0452 165.797 18.3066 165.604 18.543C165.231 18.9941 164.934 19.32 164.712 19.5205C164.712 19.764 164.895 20.0146 165.26 20.2725C165.604 20.516 165.894 20.6377 166.13 20.6377C166.373 20.6377 166.656 20.5804 166.979 20.4658C167.308 20.3512 167.645 20.1973 167.988 20.0039C168.339 19.8105 168.694 19.5885 169.052 19.3379C169.417 19.0872 169.775 18.8294 170.126 18.5645L172.092 17.0283C172.872 16.4626 173.506 16.1797 173.993 16.1797C174.187 16.1797 174.333 16.2513 174.434 16.3945C174.541 16.5306 174.595 16.6917 174.595 16.8779C174.595 17.0641 174.502 17.3219 174.315 17.6514C174.129 17.9736 173.871 18.3317 173.542 18.7256C173.22 19.1195 172.84 19.5312 172.403 19.9609C171.966 20.3906 171.494 20.8132 170.985 21.2285C170.477 21.6439 169.947 22.0413 169.396 22.4209C168.851 22.7933 168.307 23.1227 167.763 23.4092ZM183.983 16.6416C184.685 16.6416 185.036 16.8851 185.036 17.3721C185.036 17.8376 184.707 18.4391 184.048 19.1768L183.521 19.7246C182.884 20.3763 182.139 21.0173 181.287 21.6475C180.442 22.2777 179.697 22.7754 179.053 23.1406C177.556 23.9714 176.199 24.3867 174.981 24.3867C173.836 24.3867 172.901 24.043 172.178 23.3555C171.555 22.7611 171.243 22.1344 171.243 21.4756C171.243 20.8167 171.308 20.1615 171.437 19.5098C171.565 18.8581 171.734 18.2207 171.941 17.5977C172.357 16.3301 172.812 15.2523 173.306 14.3643C173.435 14.1208 173.499 13.9632 173.499 13.8916H172.113C171.59 13.8916 171.186 13.7699 170.899 13.5264C170.613 13.2829 170.47 13.0072 170.47 12.6992C170.47 12.3913 170.527 12.1657 170.642 12.0225C170.756 11.8792 170.899 11.7754 171.071 11.7109C171.315 11.6107 171.673 11.5605 172.146 11.5605L174.777 11.5713C174.835 11.5498 174.949 11.3958 175.121 11.1094L175.776 9.98145C176.056 9.48014 176.335 9.11133 176.614 8.875C176.901 8.63867 177.234 8.52051 177.613 8.52051C178 8.52051 178.322 8.55632 178.58 8.62793C178.845 8.69954 179.067 8.78906 179.246 8.89648C179.597 9.12565 179.772 9.3763 179.772 9.64844C179.772 9.76302 179.733 9.91699 179.654 10.1104L179.053 11.5713L184.155 11.5605C184.599 11.5605 184.821 11.7897 184.821 12.248C184.821 13.3366 183.851 13.8809 181.91 13.8809L177.979 13.8916C177.893 13.9346 177.746 14.1423 177.538 14.5146L177.055 15.4062C176.933 15.6283 176.847 15.7965 176.797 15.9111L176.561 16.4375C176.081 17.5189 175.841 18.2995 175.841 18.7793C175.841 19.2591 175.966 19.6602 176.217 19.9824C176.475 20.3047 176.815 20.4658 177.237 20.4658C177.66 20.4658 178.072 20.3835 178.473 20.2188C178.881 20.054 179.278 19.8535 179.665 19.6172C180.367 19.1803 180.918 18.7757 181.319 18.4033C181.72 18.0309 182.053 17.748 182.318 17.5547C182.318 17.5547 182.569 17.3792 183.07 17.0283C183.457 16.7705 183.761 16.6416 183.983 16.6416Z" fill="#1E1E1E"/>
<path d="M18.1123 1.04076C19.8961 0.538944 21.4176 1.22296 22.4436 2.01992L22.5719 2.12219L22.6947 2.22519L22.754 2.27681L22.8683 2.37998L22.9769 2.48264L23.0796 2.58429C23.1129 2.61795 23.1451 2.65136 23.1764 2.68444L23.267 2.7826C23.2962 2.81493 23.3244 2.84684 23.3515 2.87826L23.4296 2.97093L23.5014 3.06012L23.5348 3.10325L23.5968 3.18628L23.6521 3.26458L23.7005 3.33767L23.7421 3.40503L23.7767 3.46618L23.7914 3.49428L23.8153 3.54518L23.8319 3.58863C24.0132 4.14241 23.7053 5.2427 23.2542 6.24271C29.383 6.27816 31.441 10.4179 32.2708 14.666L32.3243 14.9493L32.3744 15.2327C32.3825 15.2799 32.3904 15.3271 32.3982 15.3743L32.4434 15.6573C32.4507 15.7044 32.4579 15.7515 32.4649 15.7986L32.5058 16.0806L32.5554 16.45L32.6008 16.8172L32.6523 17.2719L32.6985 17.721L32.7324 18.0753L32.779 18.5971L32.9147 20.2292C33.1935 23.1837 32.8389 25.6468 32.3111 27.5131L32.2382 27.7639L32.2009 27.8865L32.1252 28.1261C32.0997 28.2047 32.0739 28.282 32.048 28.3581L31.9695 28.5825L31.8701 28.8523L31.7696 29.1099L31.6889 29.3072L31.6081 29.4967L31.5274 29.6782L31.4472 29.8517L31.3677 30.0172L31.2892 30.1746L31.2119 30.3238L31.1361 30.4647L31.0621 30.5974C31.5583 31.514 31.8636 33.7196 31.3909 35.3091C31.3718 35.438 31.3527 35.5669 31.2859 35.6624C31.2589 35.6671 31.253 35.6867 31.2522 35.6993L31.2525 35.7101C31.2119 35.7172 31.1785 35.765 31.1857 35.8055L31.1741 35.8585L31.1605 35.9061L31.14 35.9663C31.1238 36.0103 31.1021 36.0617 31.0735 36.1182C31.064 36.1827 31.0425 36.2387 31.0159 36.2957L30.9581 36.4136L30.9279 36.4786L30.8121 36.7459L30.6817 37.0534L30.5421 37.3885L30.4468 37.6208C30.3512 37.6767 30.2552 37.7314 30.1586 37.7854C30.1331 37.7172 30.1052 37.6509 30.0783 37.5907C30.064 37.5096 30.0163 37.4761 30.002 37.395C28.842 34.4852 27.1333 33.1188 25.346 32.5326L25.1608 32.4747L25.0043 32.4396L24.7065 32.3666L24.5499 32.3314C23.0765 32.0289 21.6042 32.2077 20.3856 32.453L20.1372 32.5046L19.8965 32.5572L19.664 32.6102L19.021 32.7624L18.9686 32.7735L18.8547 32.7956L18.7932 32.8065L18.6614 32.828L18.4422 32.8597L18.1981 32.8906L17.9302 32.9205L17.5375 32.9589L17.2178 32.9864L16.9932 33.0041L16.6399 33.0297L16.2678 33.0541L15.7441 33.0844L15.3321 33.1055L14.7588 33.1314L14.3123 33.1489L13.8527 33.1648L13.2214 33.1834L12.2394 33.2051C11.7056 32.4654 11.4154 31.7346 11.2021 31.0755L11.1336 30.8585L10.9485 30.2447L10.8891 30.0541C8.61682 29.9241 5.95576 30.3365 3.45647 30.9757C2.26682 29.0861 1.37838 26.9675 0.869568 24.6755C1.45683 24.3378 2.16579 24.1237 2.88039 23.9389L3.14869 23.8707L3.79823 23.7086L4.02929 23.6489C5.87818 23.1998 6.79064 22.2316 6.79365 20.8975L6.79277 20.8186C6.78765 20.6071 6.79338 20.356 6.81204 20.0746L6.82849 19.8581C6.8348 19.7841 6.84196 19.7083 6.84999 19.631L6.87672 19.3943L6.9089 19.1488C7.11863 17.6514 7.63244 15.727 8.64029 14.2169C10.0049 11.9169 11.6628 10.3266 13.1922 9.24747L13.3909 9.1096L13.4897 9.0428L13.6858 8.91345L13.88 8.78964L14.072 8.67129L14.2616 8.5583L14.4486 8.45056L14.6327 8.34799L14.8139 8.25048L15.0796 8.1135L15.2523 8.02822L15.4212 7.94767L15.6672 7.83547L15.8259 7.76629L16.0555 7.6707L16.2026 7.61228L16.3448 7.55799L16.5481 7.4841L16.6769 7.43973L16.7999 7.39914L16.9732 7.34515L17.1325 7.29915L17.2306 7.27275L17.3649 7.23931C16.6515 6.98855 15.2938 5.93091 14.9598 4.98565L14.9365 4.91445L14.9258 4.87737L14.9063 4.80036L14.8895 4.71974C14.8818 4.67855 14.8753 4.63609 14.8699 4.59247L14.8609 4.5037L14.8576 4.45821L14.8538 4.36518L14.8533 4.31768L14.8552 4.22083C14.8603 4.09015 14.8761 3.95338 14.9048 3.81273L14.9288 3.70654C15.1666 2.74496 16.0129 1.63137 18.1123 1.04076Z" fill="black"/>
<path d="M10.5655 29.4276L10.4567 29.4087L10.4348 29.404L10.4675 29.5834L10.502 29.759L10.5477 29.9734L10.5968 30.1824L10.6386 30.3459L10.6605 30.4264L10.7062 30.5851L10.7547 30.7408L10.8062 30.8937C11.0008 31.4493 11.2594 31.9501 11.6231 32.4253L11.7249 32.5543C11.8643 32.7255 12.018 32.8937 12.1881 33.0602L12.3187 33.1849L12.3864 33.247L12.5266 33.371C12.5745 33.4122 12.6234 33.4535 12.6735 33.4947L12.8271 33.6182C12.9056 33.68 12.9867 33.7417 13.0706 33.8035L13.2419 33.9273C13.3003 33.9686 13.3599 34.0099 13.4207 34.0513L13.6072 34.1759C13.6389 34.1967 13.6709 34.2175 13.7033 34.2383L13.9015 34.3638L14.0036 34.4268L14.2139 34.5534L14.4327 34.681L14.7768 34.8746L15.0173 35.0052L15.2667 35.1373L15.5253 35.2709L15.7933 35.4062L16.0709 35.5434L16.3582 35.6825L16.8078 35.8951C19.4613 37.1336 21.502 36.5739 22.8986 35.6293L23.0317 35.5368C23.0972 35.4899 23.1613 35.4423 23.2238 35.394L23.3469 35.2967C23.3671 35.2804 23.3871 35.264 23.4069 35.2475L23.5239 35.1482L23.6506 35.0353C23.7748 34.9219 23.8913 34.8072 24 34.6932L24.1062 34.5794L24.2072 34.4663L24.2557 34.4103L24.3489 34.2992L24.4369 34.1899L24.5197 34.0828L24.5972 33.9783L24.6696 33.8769L24.7683 33.7312L24.8275 33.6391L24.9065 33.5093L24.9526 33.429L25.0118 33.3189C24.222 32.8724 23.9453 32.2517 23.9453 31.5405C23.931 30.6413 24.399 29.657 24.8709 28.9133L24.984 28.7397C25.0215 28.6834 25.0589 28.6289 25.0957 28.5762C27.2846 28.1902 28.6073 26.3731 29.4096 24.3646L29.4936 24.1487L29.5737 23.9317C29.6258 23.7868 29.6754 23.6413 29.7226 23.4957L29.7916 23.2774L29.8571 23.0593L29.932 22.7953L29.9676 22.6637L30.0353 22.4021L30.0675 22.2721L30.1283 22.0142L30.1848 21.7596L30.2371 21.5089L30.2854 21.2626L30.3298 21.0214L30.3896 20.6706L30.4251 20.4448L30.4574 20.2262L30.4866 20.0154L30.525 19.7152L30.5573 19.4361L30.5922 19.1L30.6187 18.8099L30.6422 18.519C30.6534 18.3845 30.6605 18.2403 30.6635 18.0887L30.6652 17.9033L30.6645 17.8082L30.6603 17.6137L30.6522 17.4143L30.6401 17.2109L30.6241 17.0043L30.6146 16.9001L30.5926 16.6904L30.5685 16.4942C30.5642 16.4614 30.5597 16.4287 30.5551 16.396L30.5258 16.1998C30.5155 16.1346 30.5045 16.0695 30.493 16.0047L30.4568 15.8112C30.2349 14.6888 29.8343 13.6889 29.2467 13.4514L28.6181 13.188L28.4613 13.1202L28.21 13.0079L27.9419 12.8826L27.7549 12.7914L27.5707 12.6982C27.5396 12.6822 27.5083 12.6659 27.4768 12.6494L27.286 12.5472C27.2218 12.5121 27.157 12.4759 27.0917 12.4387L26.8944 12.3239C25.6377 11.576 24.247 10.4327 23.4725 8.69568C22.3244 11.2572 21.086 12.8264 19.8946 13.8202L19.7395 13.9466C19.6621 14.0082 19.5849 14.0675 19.508 14.1244L19.3545 14.2354C19.329 14.2534 19.3035 14.2712 19.2781 14.2887L19.1258 14.3911C19.0499 14.4409 18.9743 14.4886 18.899 14.5344L18.749 14.6234L18.6001 14.7074C18.5506 14.7346 18.5014 14.761 18.4523 14.7866L18.3056 14.8613C18.2813 14.8733 18.257 14.8852 18.2328 14.8969L18.088 14.9651L17.9209 15.0395L17.7557 15.1088L17.5925 15.1731L17.4315 15.2329L17.2727 15.2885L17.1164 15.3402L16.9625 15.3884L16.8112 15.4332L16.6626 15.4752L16.445 15.5334L16.2341 15.5869L15.5238 15.7605L15.3489 15.8065L15.2371 15.838L15.1333 15.8478L14.9716 15.8671L14.8602 15.8833L14.7466 15.9021L14.6017 15.9297L14.4545 15.9618C14.415 15.971 14.3753 15.9807 14.3355 15.991L14.2157 16.0233L14.0957 16.0589L13.9757 16.0978C13.9357 16.1114 13.8958 16.1255 13.8561 16.1403L13.7373 16.1862C13.6781 16.2101 13.6194 16.2354 13.5614 16.2621L13.4461 16.3175C12.5132 16.7852 11.7885 17.6443 12.18 19.1385C12.7416 21.2813 14.3306 21.5643 15.6872 21.202L15.8117 21.1668C15.8943 21.1421 15.9758 21.1152 16.056 21.0862L16.1752 21.0412C16.1949 21.0335 16.2145 21.0257 16.234 21.0177C16.6623 22.0617 16.2999 23.3936 15.6895 24.6769L15.5855 24.8903C15.5325 24.9967 15.478 25.1027 15.4222 25.2079L15.3092 25.4176L15.1936 25.6251L15.0759 25.8301L14.9567 26.0324L14.8365 26.2314L14.7159 26.427L14.5355 26.7131L14.2987 27.0791L13.5656 28.1826C13.0087 29.0567 12.1947 29.3544 11.5363 29.4375L11.3937 29.4525L11.2572 29.4615L11.2045 29.4635L11.1028 29.4653L11.0062 29.4644L10.9155 29.4613L10.7912 29.4534L10.6827 29.4429L10.5655 29.4276Z" fill="white"/>
<path d="M23.9358 31.5156C23.9215 30.6164 24.3895 29.6321 24.8614 28.8884L24.9744 28.7147C25.012 28.6585 25.0493 28.604 25.0862 28.5513L24.6961 28.5369L24.4533 28.5249L24.2462 28.5117L24.0348 28.4947L23.8627 28.4778L23.6881 28.4575C23.6588 28.4538 23.6294 28.45 23.5999 28.446L23.4216 28.4198L23.2451 28.39C23.2154 28.3846 23.1858 28.3791 23.156 28.3733L22.9762 28.3364C21.8005 28.0798 20.4916 27.4922 19.1304 26.0869L19.1501 26.4492L19.1669 26.6945L19.1825 26.88L19.2015 27.0664L19.2164 27.191L19.2427 27.3784L19.263 27.5035L19.2741 27.566L19.2984 27.691L19.3255 27.8159L19.3556 27.9405L19.389 28.0649L19.4259 28.1889C19.4388 28.2302 19.4523 28.2714 19.4665 28.3125L19.5109 28.4354C19.5341 28.4968 19.5589 28.5579 19.5853 28.6187L19.6403 28.74C20.1846 29.888 21.3516 30.9219 23.9358 31.5156Z" fill="#737373"/>
<path d="M25.2427 16.5226C25.162 16.5316 25.1038 16.6043 25.1128 16.6851L25.1513 17.0443L25.1884 17.415L25.2352 17.9199L25.2886 18.5532L25.3356 19.1704L25.375 19.7512L25.4004 20.1762L25.4198 20.5547L25.4301 20.8019L25.4348 20.9469L25.4384 21.1313C25.4405 21.3489 25.2653 21.4892 24.9042 21.5885L24.8004 21.6148L24.6827 21.6402L24.4694 21.6795C24.3894 21.6936 24.336 21.7698 24.3501 21.8498C24.3642 21.9298 24.4405 21.9832 24.5205 21.9691L24.6958 21.9373L24.7861 21.9192L24.909 21.8911C25.4326 21.7619 25.7364 21.5397 25.7325 21.1285L25.7289 20.9418L25.7177 20.6327L25.6943 20.1642L25.6688 19.7363L25.6377 19.2723L25.6111 18.9068L25.5611 18.2772L25.5167 17.7667L25.4689 17.2614L25.4311 16.8919L25.4051 16.6525C25.3961 16.5718 25.3234 16.5137 25.2427 16.5226Z" fill="#D6D6D6"/>
<path d="M22.7232 19.1883C22.2751 19.2673 21.8414 18.9317 21.7544 18.4387C21.6675 17.9456 21.9603 17.4819 22.4083 17.4029C22.8564 17.3239 23.2901 17.6595 23.3771 18.1525C23.464 18.6456 23.1712 19.1093 22.7232 19.1883Z" fill="#1E1E1E"/>
<path d="M27.8837 19.8954C27.458 19.9705 27.0489 19.668 26.9698 19.2198C26.8908 18.7715 27.1718 18.3474 27.5975 18.2723C28.0232 18.1972 28.4323 18.4997 28.5113 18.948C28.5904 19.3962 28.3094 19.8204 27.8837 19.8954Z" fill="#1E1E1E"/>
<path d="M29.9058 17.1495C29.9297 16.8105 29.7913 16.5002 29.5789 16.2448C29.3666 15.9893 29.0469 15.8365 28.7343 15.7243C28.4288 15.6526 28.09 15.6287 27.806 15.6788C27.4815 15.736 27.2119 15.8672 26.9565 16.0796L26.9637 16.1202C27.2763 16.2324 27.5411 16.3112 27.7988 16.3495L27.9275 16.3864L28.1672 16.4519C28.2826 16.4838 28.393 16.5167 28.5051 16.5596L28.6722 16.6178L29.0037 16.7188C29.0592 16.7365 29.1148 16.7555 29.1709 16.777L29.5619 16.9791L29.7242 17.061L29.9058 17.1495Z" fill="#1E1E1E"/>
<path d="M23.7856 16.1239C23.5661 15.8279 23.2535 15.7156 22.9552 15.6846C22.6498 15.6129 22.3253 15.6701 22.0485 15.7608C21.7311 15.8586 21.4686 16.0304 21.261 16.2762C21.0534 16.522 20.8935 16.8012 20.8696 17.1402L21.2524 17.0205C21.3983 16.9761 21.5314 16.9398 21.6666 16.9159L22.3419 16.7132C22.5781 16.6297 22.781 16.5939 23.0172 16.5104L23.2562 16.4249L23.4236 16.3619C23.5388 16.3172 23.662 16.2666 23.7999 16.2051L23.7856 16.1239Z" fill="#1E1E1E"/>
<path d="M26.0023 24.4198C25.8352 24.6585 25.6061 24.7826 25.4104 24.8589L25.2583 24.9127C25.0865 24.9723 24.9319 25.0177 24.7685 25.0139C24.5585 25.0091 24.3414 24.9637 24.11 24.8372C23.8857 24.7512 23.7282 24.5698 23.5636 24.3478L23.4824 24.3621C23.4534 24.6405 23.5783 24.9648 23.7949 25.1756L23.8427 25.219C24.0956 25.4673 24.4082 25.5796 24.747 25.6035C25.1264 25.6203 25.4366 25.4819 25.692 25.2695C25.9473 25.0571 26.1406 24.7302 26.0834 24.4055L26.0023 24.4198Z" fill="#737373"/>
<path d="M23.4212 20.2377C23.3663 20.875 22.4213 21.209 21.3642 21.1443C20.3071 21.0797 19.861 20.4471 20.0376 19.7883C20.2142 19.1296 21.4599 19.0773 21.9347 19.1609L22.0191 19.1778C22.034 19.181 22.0493 19.1846 22.0649 19.1883L22.1626 19.2136C22.1963 19.2229 22.2312 19.2332 22.2669 19.2444L22.376 19.2806C22.8754 19.4553 23.4678 19.7902 23.4212 20.2377Z" fill="#D6D6D6"/>
<path d="M27.3556 21.9327C26.561 21.6963 25.9597 21.1328 26.1101 20.5624C26.233 20.0961 26.8932 19.9824 27.3895 20.0021L27.4968 20.0086C27.5488 20.0128 27.5982 20.0185 27.6439 20.0254L27.9831 20.0818L28.1691 20.1162L28.3185 20.1478L28.4465 20.1785L28.5756 20.2137L28.678 20.2454L28.7753 20.2792C29.2237 20.4446 29.583 20.7193 29.4006 21.1955C29.1768 21.7799 28.5271 21.9604 28.0035 21.9861L27.8935 21.9894L27.7885 21.9884L27.7383 21.9866L27.6431 21.9804L27.5561 21.9713L27.516 21.9659L27.4433 21.9537C27.4097 21.9471 27.3802 21.94 27.3556 21.9327Z" fill="#D6D6D6"/>
<path d="M15.3794 16.5217C15.3836 16.6314 15.3897 16.7408 15.3973 16.8496L15.4144 17.0663C15.4208 17.1382 15.4277 17.2098 15.4353 17.2809L15.4595 17.4929L15.4867 17.7018L15.5164 17.907L15.5322 18.0081L15.5651 18.2069L15.6175 18.4958L15.6538 18.6813L15.6908 18.8607L15.7468 19.117L15.8022 19.3565L15.8729 19.6467L16.035 20.2786L16.0622 20.3961L16.0662 20.4172C16.0443 20.4263 16.0211 20.4352 15.9967 20.4438L15.9198 20.4687L15.8363 20.4917L15.7466 20.5124L15.6997 20.5218L15.6019 20.5384L15.4995 20.552L15.3929 20.5622C15.3748 20.5636 15.3566 20.5648 15.3382 20.5659L15.2266 20.5703L15.1122 20.5705L14.9957 20.5661C14.1743 20.5191 13.2391 20.1142 13.0717 18.8533C12.9086 17.7978 13.4789 17.2236 14.105 16.9063L14.2042 16.8583L14.3038 16.8144L14.4107 16.7715L14.5166 16.7328L14.5689 16.7149L14.6718 16.6822L14.7718 16.653L14.9149 16.6156L15.0044 16.5945L15.1664 16.5605L15.3794 16.5217Z" fill="#D6D6D6"/>
<path d="M31.3044 17.7182C31.9502 19.0089 32.7641 20.1633 33.5964 21.2839L33.93 21.7306L34.4294 22.3971C34.4846 22.4711 34.5396 22.545 34.5945 22.619L34.8033 22.9209C35.0086 23.2181 35.2005 23.5059 35.3508 23.8246C35.5054 24.132 35.6173 24.5006 35.7205 24.8813L35.7969 25.1684C35.9234 25.6482 36.0021 26.0946 36.0474 26.5887L36.0445 26.7633C36.0323 27.1745 35.9757 27.6055 35.7418 27.9396L35.8372 28.0064C36.1857 27.6103 36.2621 27.0947 36.2979 26.5863C36.2932 26.0851 36.2479 25.591 36.162 25.1041L36.1095 24.8121C36.0369 24.4232 35.9488 24.0371 35.7827 23.6647C35.5752 23.1992 35.3342 22.7815 35.0932 22.3637L34.571 21.5369C34.2232 20.9877 33.8764 20.4445 33.5329 19.9193L33.2447 19.4178C32.863 18.7487 32.497 18.0769 32.2088 17.3914L31.3044 17.7182Z" fill="#1E1E1E"/>
<path d="M10.9109 29.5926L11.0731 30.1485L11.1445 30.3804L11.2021 30.5575L11.2641 30.737L11.3083 30.8579L11.3549 30.9798L11.4044 31.1026L11.4568 31.2262L11.5269 31.3817L11.6024 31.5383L11.6839 31.6959L11.7718 31.8542L11.8469 31.9815L11.8862 32.0452L11.9683 32.173L12.0554 32.3011L12.1476 32.4295L12.2452 32.558C12.697 33.1367 13.3196 33.7191 14.2071 34.2805L14.4087 34.4049C15.1643 34.8596 16.1003 35.2991 17.2678 35.71C20.2634 36.7642 22.0397 36.4362 23.2429 35.6853L23.3594 35.6101L23.4724 35.5324L23.5819 35.4523L23.6966 35.3635L23.8076 35.2724L23.9151 35.1793L24.0193 35.0846L24.0702 35.0366L24.1698 34.9398L24.2664 34.8419L24.3603 34.7432L24.4965 34.5942L24.6275 34.4447L24.7952 34.2464L25.2258 33.7221L25.3008 33.6325L25.2389 33.5789L25.1194 33.4722C24.538 32.9391 24.1995 32.411 24.4143 31.6884L24.4977 31.7174L25.0054 31.8785L25.1521 31.9276L25.3083 31.9825L25.4733 32.044L25.5879 32.0889L25.7058 32.1371L25.8269 32.189L25.9509 32.2446L26.0776 32.3041L26.2068 32.3678L26.3382 32.4358L26.4718 32.5084L26.6072 32.5857C26.8569 32.7318 27.1149 32.9027 27.3749 33.1038L27.517 33.2164L27.6592 33.3353L27.7304 33.3971L27.8725 33.5256C28.7484 34.3382 29.605 35.5303 30.2127 37.3058C28.2979 38.3817 26.1718 39.158 23.8861 39.561C15.638 41.0154 7.68011 37.191 3.47827 30.5148C5.97798 29.8697 8.64024 29.4514 10.9109 29.5926Z" fill="#96989E"/>
<path d="M25.4117 32.1678C25.5019 32.2051 25.6048 32.2513 25.7168 32.3051L25.8913 32.3916C26.3423 32.6213 26.8977 32.9512 27.3743 33.3206L27.4685 33.395C27.8997 33.7089 28.1681 34.5706 28.3347 35.6885L28.3648 35.9011L28.3926 36.1192L28.4181 36.3425L28.4416 36.5705L28.463 36.8028L28.4915 37.1584L28.5083 37.3996L28.5303 37.7665L28.5541 38.263C27.7467 38.6279 26.9075 38.9416 26.0401 39.1998L26.0189 38.6696L25.9943 38.1473L25.9665 37.6342L25.9359 37.1316L25.9027 36.641L25.8792 36.3211L25.8424 35.8532L25.8039 35.4008L25.7638 34.9652L25.7225 34.5477L25.6804 34.1497L25.6233 33.6517L25.5802 33.3043L25.5372 32.9809L25.4946 32.6828L25.4666 32.4987L25.4117 32.1678ZM8.13815 29.5652C9.85008 31.9523 10.7156 34.9673 11.1372 37.8088C9.54487 36.986 8.06874 35.9527 6.75062 34.7388L6.71709 34.5875L6.64806 34.2899C6.62464 34.1917 6.60083 34.0947 6.57668 33.9989L6.50328 33.7149L6.4092 33.37L6.31313 33.0369L6.23529 32.7792L6.15694 32.5296L6.07839 32.2883L6 32.0557L5.9221 31.8319L5.80688 31.5133L5.69463 31.2161L5.58648 30.9411L5.51721 30.7705L5.41839 30.5344L5.32667 30.3228L5.21738 30.0802L8.13815 29.5652Z" fill="#0C0C0C"/>
<path d="M46 28H74.5M85 28H184.5" stroke="#1E1E1E" stroke-width="2" stroke-linecap="round"/>
<path d="M50.82 39L49.08 35.78H48.12L47.44 39H46.18L47.7 31.75H48.96L48.34 34.72H49.22L52.02 31.75H53.53L50.19 35.25L52.19 39H50.82ZM54.6663 37.54L56.6763 33.62H57.9563L54.9663 38.99C54.1163 40.48 53.9063 40.75 52.7463 40.75H52.0862L52.2762 39.86H52.6663C53.1763 39.86 53.2063 39.85 53.6363 39.1L53.7363 38.92L52.8763 33.62H54.0963L54.6663 37.54ZM59.8277 33.62L59.7077 34.19C60.0377 33.74 60.5377 33.5 61.1277 33.5C62.5577 33.5 63.1377 34.57 63.1377 35.78C63.1377 37.47 62.1577 39.13 60.4377 39.13C59.7077 39.13 59.1577 38.77 58.8877 38.12L58.3277 40.75H57.1377L58.6477 33.62H59.8277ZM59.1977 36.71C59.1977 37.59 59.5777 38.16 60.3477 38.16C61.4277 38.16 61.9177 36.82 61.9177 35.85C61.9177 34.97 61.5577 34.47 60.8077 34.47C59.7677 34.47 59.1977 35.64 59.1977 36.71ZM68.9609 35.46H67.8209C67.8209 34.93 67.4909 34.49 66.7309 34.49C65.5109 34.49 65.0109 35.87 64.9809 36.75C64.9509 37.71 65.3609 38.14 66.0809 38.14C66.7609 38.14 67.2709 37.81 67.5409 37.16H68.7109C68.2309 38.56 67.0309 39.13 65.9409 39.13C64.5309 39.13 63.7009 38.22 63.7509 36.87C63.7809 35.5 64.6709 33.5 66.8709 33.5C68.1809 33.5 68.9909 34.36 68.9609 35.46ZM75.0053 36.72L75.0653 36.48C73.1753 36.69 72.6353 37.03 72.6353 37.58C72.6353 38.01 72.9953 38.21 73.3853 38.21C74.3853 38.21 74.8053 37.68 75.0053 36.72ZM73.0153 35.31H71.8653C72.0753 34.16 73.0253 33.46 74.3553 33.46C75.5053 33.46 76.4853 33.89 76.4853 35.07C76.4853 35.26 76.4753 35.47 76.4053 35.71C76.3253 36 76.1753 36.74 76.0653 37.22C75.9153 37.9 75.8153 38.55 75.7853 39H74.6753L74.7953 38.36C74.3253 38.93 73.7553 39.13 73.0353 39.13C72.1653 39.13 71.3553 38.65 71.3553 37.73C71.3553 36.36 72.7353 35.92 75.2153 35.65L75.2653 35.42C75.2953 35.32 75.3053 35.22 75.3053 35.12C75.3053 34.55 74.7853 34.34 74.2253 34.34C73.6153 34.34 73.1253 34.66 73.0153 35.31ZM81.7596 39H80.5696L81.0496 36.71H78.6496L78.1696 39H76.9796L78.1196 33.62H79.3096L78.8496 35.77H81.2496L81.7096 33.62H82.8996L81.7596 39ZM87.7317 34.56H85.2717L84.3317 39H83.1417L84.2817 33.62H87.9317L87.7317 34.56ZM92.8349 33.62L91.6949 39H90.5049L91.4449 34.56H89.9449L89.6649 35.53C88.8149 38.28 88.0949 39 86.9449 39H86.6449L86.8449 38.06H87.0449C87.3649 38.06 87.8549 37.76 88.5449 35.44L89.0549 33.62H92.8349ZM94.2634 39H93.0734L94.2134 33.62H95.4034L94.6234 37.32L97.8634 33.62H99.0534L97.9134 39H96.7234L97.5134 35.32L94.2634 39ZM104.104 31.75H104.994C104.794 32.58 104.244 33.05 102.974 33.05C101.964 33.05 101.454 32.58 101.454 31.95C101.454 31.88 101.464 31.82 101.474 31.75H102.304C102.294 31.78 102.294 31.82 102.294 31.87C102.294 32.18 102.504 32.38 103.034 32.38C103.634 32.38 104.014 32.26 104.104 31.75ZM100.484 39H99.2941L100.434 33.62H101.624L100.844 37.32L104.084 33.62H105.274L104.134 39H102.944L103.734 35.32L100.484 39ZM110.885 35.46H109.745C109.745 34.93 109.415 34.49 108.655 34.49C107.435 34.49 106.935 35.87 106.905 36.75C106.875 37.71 107.285 38.14 108.005 38.14C108.685 38.14 109.195 37.81 109.465 37.16H110.635C110.155 38.56 108.955 39.13 107.865 39.13C106.455 39.13 105.625 38.22 105.675 36.87C105.705 35.5 106.595 33.5 108.795 33.5C110.105 33.5 110.915 34.36 110.885 35.46ZM114.81 39L113.54 36.65H112.81L112.31 39H111.11L112.25 33.62H113.45L113.01 35.71H113.71L115.58 33.62H116.96L114.58 36.23L116.11 39H114.81ZM119.779 33.5C121.089 33.5 122.019 34.32 122.019 35.77C122.019 37.3 120.989 39.13 118.959 39.13C117.649 39.13 116.719 38.31 116.719 36.86C116.719 35.33 117.749 33.5 119.779 33.5ZM119.649 34.47C118.579 34.47 117.949 35.69 117.949 36.81C117.949 37.6 118.279 38.16 119.089 38.16C120.159 38.16 120.789 36.94 120.789 35.82C120.789 35.03 120.459 34.47 119.649 34.47ZM126.96 34.56H124.5L123.56 39H122.37L123.51 33.62H127.16L126.96 34.56ZM129.837 33.5C131.147 33.5 132.077 34.32 132.077 35.77C132.077 37.3 131.047 39.13 129.017 39.13C127.707 39.13 126.777 38.31 126.777 36.86C126.777 35.33 127.807 33.5 129.837 33.5ZM129.707 34.47C128.637 34.47 128.007 35.69 128.007 36.81C128.007 37.6 128.337 38.16 129.147 38.16C130.217 38.16 130.847 36.94 130.847 35.82C130.847 35.03 130.517 34.47 129.707 34.47ZM139.968 33.62L138.828 39H137.638L138.038 37.14H137.038L135.488 39H134.137L135.998 36.83C135.518 36.63 135.198 36.09 135.198 35.53C135.198 34.3 136.038 33.62 137.558 33.62H139.968ZM138.578 34.56H137.528C136.818 34.56 136.368 34.85 136.368 35.49C136.368 35.92 136.668 36.2 137.198 36.2H138.218L138.578 34.56ZM144.086 36.21C144.516 36.36 144.836 36.67 144.846 37.31C144.846 38.4 143.936 39.13 142.376 39.13C141.126 39.13 140.196 38.62 140.116 37.25H141.256C141.266 37.9 141.716 38.25 142.436 38.25C143.336 38.25 143.646 37.78 143.646 37.37C143.636 36.9 143.296 36.71 142.546 36.71H141.916L142.076 35.78H142.826C143.456 35.78 143.816 35.44 143.816 34.99C143.806 34.56 143.526 34.37 143.056 34.37C142.346 34.37 141.866 34.67 141.666 35.36H140.526C140.766 34.16 141.946 33.48 143.126 33.48C144.256 33.48 144.976 33.95 144.986 34.88C144.986 35.45 144.676 35.98 144.086 36.21ZM147.795 39H145.515L146.655 33.62H147.845L147.465 35.43H148.065C149.465 35.43 150.095 35.94 150.095 37.02C150.095 38.13 149.135 39 147.795 39ZM147.265 36.37L146.905 38.06H147.835C148.545 38.06 148.905 37.61 148.905 37.05C148.905 36.5 148.485 36.37 147.985 36.37H147.265ZM151.585 39H150.395L151.535 33.62H152.725L151.585 39ZM156.666 39L155.396 36.65H154.666L154.166 39H152.966L154.106 33.62H155.306L154.866 35.71H155.566L157.436 33.62H158.816L156.436 36.23L157.966 39H156.666ZM162.232 36.72L162.292 36.48C160.402 36.69 159.862 37.03 159.862 37.58C159.862 38.01 160.222 38.21 160.612 38.21C161.612 38.21 162.032 37.68 162.232 36.72ZM160.242 35.31H159.092C159.302 34.16 160.252 33.46 161.582 33.46C162.732 33.46 163.712 33.89 163.712 35.07C163.712 35.26 163.702 35.47 163.632 35.71C163.552 36 163.402 36.74 163.292 37.22C163.142 37.9 163.042 38.55 163.012 39H161.902L162.022 38.36C161.552 38.93 160.982 39.13 160.262 39.13C159.392 39.13 158.582 38.65 158.582 37.73C158.582 36.36 159.962 35.92 162.442 35.65L162.492 35.42C162.522 35.32 162.532 35.22 162.532 35.12C162.532 34.55 162.012 34.34 161.452 34.34C160.842 34.34 160.352 34.66 160.242 35.31Z" fill="#1E1E1E"/>
</svg>
