<?xml version="1.0" encoding="UTF-8"?>
<svg width="91px" height="53px" viewBox="0 0 91 53" version="1.1" xmlns="http://www.w3.org/2000/svg"
     xmlns:xlink="http://www.w3.org/1999/xlink">
    <title>Artboard Copy</title>
    <g id="Artboard-Copy" stroke="none" stroke-width="1" fill="none" fill-rule="evenodd">
        <path d="M72.5,0.5 C77.4705627,0.5 81.9705627,2.51471863 85.2279221,5.77207794 C88.4852814,9.02943725 90.5,13.5294373 90.5,18.5 C90.5,23.4705627 88.4852814,27.9705627 85.2279221,31.2279221 C81.9705627,34.4852814 77.4705627,36.5 72.5,36.5 C72.2330264,36.5 71.9674103,36.4941878 71.7036296,36.4828541 C71.8242464,36.7279483 71.9375283,36.9697451 72.0444479,37.206088 C72.7746561,38.8201944 73.5,40.8251381 73.5,43 C73.5,45.6233526 72.4366763,47.9983526 70.7175144,49.7175144 C68.9983526,51.4366763 66.6233526,52.5 64,52.5 L64,52.5 L20,52.5 C17.3766474,52.5 15.0016474,51.4366763 13.2824856,49.7175144 C11.5633237,47.9983526 10.5,45.6233526 10.5,43 C10.5,40.4554864 11.5003569,38.1446098 13.1292803,36.4392435 C13.3216611,36.2378346 13.5228806,36.0447969 13.73152,35.8607175 C13.4606091,35.7865242 13.1908401,35.7057739 12.9224444,35.6184297 C9.27012204,34.4298528 6.13081722,32.1044547 3.92163471,29.0602058 C1.76914795,26.0940835 0.5,22.4452368 0.5,18.5 C0.5,13.5294373 2.51471863,9.02943725 5.77207794,5.77207794 C9.02943725,2.51471863 13.5294373,0.5 18.5,0.5 L18.5,0.5 Z"
              id="Combined-Shape" stroke="#000000"></path>
        <text id="more" font-family="SuisseIntl-Regular, Suisse Intl" font-size="25" font-weight="normal"
              line-spacing="25" fill="#1B1B1B">
            <tspan x="15" y="28">more</tspan>
        </text>
        <text id="больше" font-family="ArialMT, Arial" font-size="15" font-weight="normal" line-spacing="15"
              fill="#1B1B1B">
            <tspan x="15" y="49">больше</tspan>
        </text>
    </g>
</svg>
