<?xml version="1.0" encoding="UTF-8"?>
<svg width="72px" height="53px" viewBox="0 0 72 53" version="1.1" xmlns="http://www.w3.org/2000/svg"
     xmlns:xlink="http://www.w3.org/1999/xlink">
    <title>Artboard Copy</title>
    <g id="Artboard-Copy" stroke="none" stroke-width="1" fill="none" fill-rule="evenodd">
        <path d="M53.5,0.5 C58.4705627,0.5 62.9705627,2.51471863 66.2279221,5.77207794 C69.4852814,9.02943725 71.5,13.5294373 71.5,18.5 C71.5,23.4705627 69.4852814,27.9705627 66.2279221,31.2279221 C62.9705627,34.4852814 58.4705627,36.5 53.4999782,36.5 L53.4999782,36.5 L46.9284719,36.5002867 C48.5233955,38.199494 49.5,40.4857215 49.5,43 C49.5,45.6233526 48.4366763,47.9983526 46.7175144,49.7175144 C44.9983526,51.4366763 42.6233526,52.5 40,52.5 L40,52.5 L20,52.5 C17.3766474,52.5 15.0016474,51.4366763 13.2824856,49.7175144 C11.5633237,47.9983526 10.5,45.6233526 10.5,43 C10.5,40.4554864 11.5003569,38.1446098 13.1292803,36.4392435 C13.3216611,36.2378346 13.5228806,36.0447969 13.73152,35.8607175 C13.4606091,35.7865242 13.1908401,35.7057739 12.9224444,35.6184297 C9.27012204,34.4298528 6.13081722,32.1044547 3.92163471,29.0602058 C1.76914795,26.0940835 0.5,22.4452368 0.5,18.5 C0.5,13.5294373 2.51471863,9.02943725 5.77207794,5.77207794 C9.02943725,2.51471863 13.5294373,0.5 18.5,0.5 L18.5,0.5 Z"
              id="Combined-Shape" stroke="#000000"></path>
        <text id="this" font-family="SuisseIntl-Regular, Suisse Intl" font-size="25" font-weight="normal"
              line-spacing="25" fill="#1B1B1B">
            <tspan x="15" y="28">this</tspan>
        </text>
        <text id="этот" font-family="ArialMT, Arial" font-size="15" font-weight="normal" line-spacing="15"
              fill="#1B1B1B">
            <tspan x="15" y="49">этот</tspan>
        </text>
    </g>
</svg>
